<svg width="57" height="57" viewBox="0 0 57 57" fill="none" xmlns="http://www.w3.org/2000/svg">
<g id="6319f3bef355d4de7a5eb8eb_Appointment%20Make%20an%20Appointment.svg" clip-path="url(#clip0_1_406)">
<path id="Vector" opacity="0.3" d="M28.4865 56.4688C43.943 56.4688 56.473 43.9327 56.473 28.4688C56.473 13.0048 43.943 0.46875 28.4865 0.46875C13.03 0.46875 0.5 13.0048 0.5 28.4688C0.5 43.9327 13.03 56.4688 28.4865 56.4688Z" fill="#A27FFF"/>
<g id="Group">
<path id="Vector_2" d="M20.4904 33.1355L17.825 27.1355L17.1587 26.4689L22.4894 21.1355L25.1548 23.1355L27.8202 22.4689L32.4846 23.1355L35.15 21.1355L39.8144 25.8022L37.8154 29.1355L35.15 34.4689L33.8173 37.1355L30.4856 38.4689L27.1539 39.1355H24.4885L22.4894 37.1355L21.1568 35.8022L20.4904 33.1355Z" fill="white"/>
<path id="Vector_3" d="M44.3288 23.1609L38.1256 16.9546C37.9262 16.755 37.6028 16.755 37.4032 16.9546L34.3016 20.0577C34.2058 20.1535 34.152 20.2835 34.152 20.4191C34.152 20.5546 34.2058 20.6846 34.3016 20.7804L34.611 21.09L33.9 21.8012C33.4384 22.2629 32.7222 22.3889 32.1178 22.1144C31.5512 21.8571 30.9213 21.7212 30.2962 21.7212C29.5538 21.7212 28.8284 21.9076 28.1838 22.2607C27.915 22.1945 27.6391 22.1605 27.3605 22.1605C26.9576 22.1605 26.5619 22.2301 26.1843 22.3674C25.5814 22.5865 24.9352 22.4507 24.4974 22.0129L23.2207 20.7356L23.3728 20.5834C23.4686 20.4876 23.5223 20.3576 23.5223 20.2221C23.5223 20.0865 23.4686 19.9565 23.3728 19.8607L20.2712 16.7576C20.0716 16.558 19.7483 16.558 19.5487 16.7576L12.6437 23.6659C12.4443 23.8655 12.4443 24.1891 12.6437 24.3887L15.7453 27.4918C15.8411 27.5876 15.971 27.6415 16.1065 27.6415C16.2421 27.6415 16.3719 27.5876 16.4678 27.4918L16.6528 27.3067L17.5532 28.2076C17.7804 28.4349 17.931 28.7187 17.9887 29.0283C18.2877 30.6334 19.056 32.0927 20.2107 33.2486L20.3803 33.4183C20.0546 33.7615 19.8754 34.2086 19.8754 34.6836C19.8754 35.1749 20.0667 35.6368 20.4139 35.9843C20.7724 36.3429 21.2431 36.5222 21.714 36.5222C21.7447 36.5222 21.7752 36.5213 21.8059 36.5198C21.781 37.021 21.9594 37.5304 22.3411 37.9124C22.6884 38.2598 23.1501 38.4511 23.6412 38.4511C23.6548 38.4511 23.6685 38.4505 23.6821 38.4501C23.6716 38.9344 23.8502 39.4221 24.2188 39.7909C24.5661 40.1384 25.0278 40.3297 25.5189 40.3297C26.01 40.3297 26.4717 40.1383 26.819 39.7909C26.8482 39.7617 26.8758 39.7314 26.9027 39.7008C27.0835 39.7639 27.2748 39.7974 27.4682 39.7974C27.9275 39.7974 28.359 39.6184 28.6826 39.2936C28.8549 39.1213 28.9855 38.9187 29.0706 38.698L29.1229 38.7503C29.4577 39.0853 29.8974 39.2528 30.3371 39.2528C30.7769 39.2528 31.2166 39.0853 31.5514 38.7503C31.7293 38.5723 31.8629 38.3621 31.9477 38.133C32.2473 38.351 32.6021 38.4602 32.957 38.4602C33.3968 38.4602 33.8367 38.2928 34.1718 37.958C34.4961 37.6335 34.6747 37.2019 34.6747 36.7427C34.6747 36.6039 34.6581 36.4678 34.6264 36.3363C34.9536 36.2698 35.2542 36.1091 35.4954 35.8675C35.8196 35.543 35.9982 35.1116 35.9982 34.6527C35.9982 34.2911 35.8869 33.9469 35.6813 33.6583L36.0911 33.2483C37.2592 32.0791 38.0309 30.6014 38.3228 28.9751C38.3718 28.7028 38.5066 28.4499 38.7128 28.2434L40.237 26.7186L40.5049 26.9866C40.6047 27.0865 40.7354 27.1363 40.8662 27.1363C40.9968 27.1363 41.1277 27.0865 41.2274 26.9866L44.329 23.8835C44.4248 23.7877 44.4786 23.6577 44.4786 23.5222C44.4786 23.3866 44.4246 23.2567 44.3288 23.1609ZM16.1065 26.4077L13.7273 24.0273L19.9099 17.8418L22.2891 20.2222L16.1065 26.4077ZM22.2916 35.2617C21.9732 35.5802 21.455 35.5803 21.1363 35.2617C20.982 35.1072 20.8971 34.902 20.8971 34.6837C20.8971 34.4655 20.9821 34.2602 21.1364 34.1059C21.2956 33.9465 21.5047 33.8669 21.7139 33.8669C21.9231 33.8669 22.1323 33.9465 22.2915 34.1059C22.61 34.4245 22.61 34.943 22.2916 35.2617ZM24.2186 37.1896C24.0645 37.3441 23.8594 37.429 23.641 37.429C23.4229 37.429 23.2177 37.344 23.0635 37.1896C22.745 36.871 22.745 36.3525 23.0635 36.0338C23.2227 35.8745 23.4318 35.7948 23.6411 35.7948C23.8502 35.7948 24.0595 35.8745 24.2186 36.0338C24.5372 36.3525 24.5372 36.871 24.2186 37.1896ZM26.0963 39.0682C25.942 39.2226 25.7369 39.3076 25.5188 39.3076C25.3006 39.3076 25.0955 39.2225 24.9412 39.0682C24.6227 38.7496 24.6227 38.2311 24.9412 37.9124C25.1004 37.7531 25.3095 37.6734 25.5188 37.6734C25.7279 37.6734 25.9372 37.7531 26.0963 37.9124C26.4149 38.2311 26.4149 38.7496 26.0963 39.0682ZM34.7726 35.145C34.6413 35.2765 34.4667 35.3489 34.281 35.3489C34.0954 35.3489 33.9208 35.2765 33.7892 35.1447L28.8335 30.1877C28.6338 29.9881 28.3105 29.9882 28.111 30.1878C27.9116 30.3874 27.9117 30.711 28.1112 30.9106L33.4492 36.2507C33.5806 36.382 33.6529 36.5568 33.6529 36.7427C33.6529 36.9289 33.5805 37.1038 33.4494 37.235C33.1779 37.5065 32.7363 37.5065 32.4652 37.2352L31.5646 36.3342C31.5596 36.329 31.5547 36.3238 31.5495 36.3187C31.548 36.3172 31.5464 36.3158 31.5448 36.3143L27.4051 32.1727C27.2055 31.9731 26.8822 31.9731 26.6827 32.1727C26.4831 32.3722 26.4831 32.6959 26.6827 32.8954L30.8356 37.0503C30.9626 37.1805 31.0325 37.3528 31.0325 37.5355C31.0325 37.7214 30.9601 37.8961 30.8288 38.0275C30.5578 38.2988 30.1166 38.2988 29.8453 38.0275L25.3422 33.5222C25.1426 33.3225 24.8193 33.3225 24.6197 33.5222C24.4202 33.7217 24.4202 34.0454 24.6197 34.2449L27.9577 37.5846C27.9587 37.5855 27.9594 37.5866 27.9604 37.5875C28.0917 37.7185 28.1639 37.893 28.1639 38.0786C28.1639 38.2645 28.0915 38.4392 27.9597 38.5711C27.8286 38.7026 27.654 38.7751 27.468 38.7751C27.4231 38.7751 27.3792 38.7705 27.3362 38.7623C27.4189 38.2053 27.2465 37.6173 26.8189 37.1894C26.4716 36.842 26.0099 36.6506 25.5188 36.6506C25.5051 36.6506 25.4915 36.6513 25.4778 36.6516C25.4883 36.1673 25.3098 35.6797 24.9412 35.3108C24.5938 34.9635 24.1322 34.7721 23.641 34.7721C23.6103 34.7721 23.5798 34.7728 23.5493 34.7743C23.5738 34.2735 23.3954 33.7645 23.0139 33.3827C22.5495 32.9182 21.8967 32.755 21.2995 32.8923L20.9332 32.5258C19.9249 31.5166 19.2541 30.2424 18.9931 28.8408C18.8974 28.3275 18.6494 27.8585 18.2757 27.4846L17.3752 26.5837L22.4983 21.4581L23.7751 22.7355C24.2659 23.2265 24.934 23.4892 25.6184 23.4892C25.9249 23.4892 26.2348 23.4365 26.5333 23.3279C26.6781 23.2752 26.8279 23.2374 26.9796 23.2134L23.8166 26.378C23.4296 26.7651 23.2165 27.2798 23.2165 27.8274C23.2165 28.3749 23.4296 28.8896 23.8166 29.2768C24.216 29.6764 24.7405 29.8761 25.2652 29.8761C25.7899 29.8761 26.3145 29.6762 26.714 29.2768L28.3026 27.6874L28.7326 28.1179C28.7327 28.118 28.7328 28.1181 28.7329 28.1182L28.7508 28.1361L28.768 28.1533C28.768 28.1533 28.7682 28.1534 28.7683 28.1535L28.7686 28.1538C28.7735 28.1587 28.7783 28.1633 28.7831 28.1679L34.7728 34.1605C34.9041 34.2919 34.9764 34.4666 34.9764 34.6525C34.9764 34.8387 34.9041 35.0134 34.7726 35.145ZM37.9902 27.5208C37.6357 27.8755 37.403 28.3159 37.3172 28.7946C37.0623 30.2146 36.3884 31.5048 35.3685 32.5257L34.976 32.9185L31.7444 29.6853C31.8146 29.6905 31.8851 29.6939 31.9562 29.6939C32.2834 29.6939 32.6182 29.6366 32.9515 29.5001C33.2127 29.3933 33.3377 29.0948 33.2309 28.8336C33.1241 28.5724 32.826 28.4473 32.5647 28.5541C31.25 29.0923 29.6738 27.6091 29.4983 27.4382C29.4954 27.4353 29.4924 27.4325 29.4894 27.4298L29.4713 27.4116C29.4712 27.4116 29.4712 27.4116 29.4711 27.4115L29.4553 27.3958C29.4553 27.3957 29.4551 27.3956 29.455 27.3955L29.025 26.965L29.5126 26.477C29.7122 26.2774 29.7122 25.9538 29.5127 25.7542C29.3131 25.5547 28.9897 25.5547 28.7903 25.7542L27.9426 26.6023C27.9422 26.6026 27.9419 26.603 27.9416 26.6033C27.9412 26.6036 27.9409 26.604 27.9406 26.6043L25.9916 28.5543C25.591 28.9549 24.9395 28.9548 24.539 28.5543C24.3451 28.3602 24.2382 28.1021 24.2382 27.8276C24.2382 27.5531 24.3451 27.2951 24.5391 27.101L27.9032 23.7352C28.0904 23.548 28.2984 23.3833 28.522 23.2454C29.0531 22.9169 29.6666 22.7432 30.2962 22.7432C30.7767 22.7432 31.2606 22.8476 31.6957 23.0452C32.6853 23.4944 33.8615 23.2851 34.6224 22.524L35.3335 21.8127L39.5145 25.9958L37.9902 27.5208ZM40.866 25.9027L35.3852 20.4192L37.7644 18.0388L43.2452 23.5223L40.866 25.9027Z" fill="#A27FFF" stroke="#A27FFF" stroke-width="0.5"/>
<path id="Vector_4" d="M41.3804 24.4243C41.6626 24.4243 41.8913 24.1955 41.8913 23.9132C41.8913 23.631 41.6626 23.4021 41.3804 23.4021C41.0983 23.4021 40.8696 23.631 40.8696 23.9132C40.8696 24.1955 41.0983 24.4243 41.3804 24.4243Z" fill="#A27FFF" stroke="#A27FFF" stroke-width="0.5"/>
<path id="Vector_5" d="M15.8404 24.9292C16.1225 24.9292 16.3512 24.7003 16.3512 24.4181C16.3512 24.1358 16.1225 23.907 15.8404 23.907C15.5583 23.907 15.3296 24.1358 15.3296 24.4181C15.3296 24.7003 15.5583 24.9292 15.8404 24.9292Z" fill="#A27FFF" stroke="#A27FFF" stroke-width="0.5"/>
</g>
</g>
<defs>
<clipPath id="clip0_1_406">
<rect width="56" height="56" fill="white" transform="translate(0.5 0.46875)"/>
</clipPath>
</defs>
</svg>
