<svg width="57" height="57" viewBox="0 0 57 57" fill="none" xmlns="http://www.w3.org/2000/svg">
<g id="6319e9b0bcbf8d0484658240_Service%20Dental%20Care%20Icon.svg" clip-path="url(#clip0_1_343)">
<path id="Vector" opacity="0.3" d="M28.5 56.4688C43.964 56.4688 56.5 43.9327 56.5 28.4688C56.5 13.0048 43.964 0.46875 28.5 0.46875C13.036 0.46875 0.5 13.0048 0.5 28.4688C0.5 43.9327 13.036 56.4688 28.5 56.4688Z" fill="#1EBCB4"/>
<g id="Group">
<path id="Vector_2" d="M21.8332 25.802L24.4998 25.1353L25.8332 29.1353L28.4998 29.802L31.1665 29.1353L32.4998 25.1353L35.1665 25.802L35.8332 29.802L33.8332 36.4686L32.4998 38.4686L30.4998 39.802L29.8332 35.1353L27.8332 33.802L26.4998 39.802L23.1665 37.802L22.4998 33.1353L21.1665 29.802L21.8332 25.802Z" fill="white"/>
<path id="Vector_3" d="M24.5 13.8022H32.5L31.1667 20.4689L25.1667 19.8022L24.5 13.8022Z" fill="white"/>
<g id="Vector_4">
<path d="M34.7868 33.5939L35.171 32.8616C35.299 32.6175 35.445 32.3691 35.6112 32.115L34.7868 33.5939ZM34.7868 33.5939H35.6138H34.7868ZM34.7868 33.5939H35.6138H34.7868ZM35.6138 33.5939H39.7499C39.9914 33.5939 40.1874 33.7897 40.1874 34.0315V43.5314C40.1874 43.773 39.9915 43.9689 39.7499 43.9689H17.25C17.0084 43.9689 16.8125 43.773 16.8125 43.5314V34.0315C16.8125 33.7899 17.0084 33.594 17.25 33.594H21.3861H22.2131L21.8289 32.8617C21.7008 32.6176 21.5548 32.3692 21.3886 32.1151L20.9702 32.3887M35.6138 33.5939L20.9702 32.3887L35.6138 33.5939ZM36.2422 27.9181C35.7914 26.2743 34.4892 24.943 32.8435 24.4488C32.7529 24.4216 32.6661 24.4053 32.5846 24.3932C32.5505 24.3882 32.5196 24.3842 32.4873 24.38C32.4799 24.3791 32.4723 24.3781 32.4647 24.3771L36.2422 27.9181ZM36.2422 27.9181L36.2454 27.9297C36.6449 29.401 36.4167 30.8832 35.6113 32.1149L36.2422 27.9181ZM20.9702 32.3887L21.3886 32.1151C20.5832 30.8833 20.355 29.4012 20.7544 27.9298C21.2022 26.281 22.5064 24.9446 24.1561 24.4489L20.9702 32.3887ZM39.3124 43.0938H38.8124H18.1875H17.6875V42.5938V34.9689V34.4689H18.1875H21.9652H22.4357L22.4643 34.9385C22.4758 35.1274 22.474 35.316 22.4563 35.5038L39.3124 43.0938ZM39.3124 43.0938V42.5938V43.0938ZM39.3124 43.0938V42.5938V43.0938ZM39.3124 42.5938V34.9689V34.4689H38.8124H35.0346H34.5639L34.5356 34.9387C34.5242 35.1273 34.5259 35.3159 34.5435 35.5037L39.3124 42.5938ZM23.5282 38.725V38.7251C24.3202 39.5948 25.4495 40.0938 26.6249 40.0938C26.8665 40.0938 27.0624 39.8979 27.0624 39.6563V35.9064C27.0624 35.1133 27.7069 34.4689 28.4999 34.4689C29.293 34.4689 29.9374 35.1133 29.9374 35.9064V39.6563C29.9374 39.8979 30.1333 40.0938 30.3749 40.0938C31.5504 40.0938 32.6797 39.5948 33.4717 38.7251C34.2623 37.8569 34.6539 36.6825 34.5435 35.5038L23.5282 38.725ZM23.5282 38.725C22.7375 37.8569 22.3459 36.6824 22.4563 35.5038L23.5282 38.725ZM24.4151 24.3934C24.333 24.4056 24.246 24.4219 24.1561 24.4489L24.4151 24.3934ZM24.4151 24.3934C24.4495 24.3883 24.4806 24.3843 24.5131 24.38L24.4151 24.3934ZM24.4151 24.3934L24.5131 24.38L24.4151 24.3934ZM24.5131 24.38C24.5205 24.3791 24.528 24.3781 24.5356 24.3771L24.5131 24.38ZM24.5131 24.38L24.5356 24.3771L24.5131 24.38ZM24.5356 24.3771C24.5712 24.3725 24.6198 24.366 24.6646 24.3571L24.5356 24.3771ZM24.3125 26.0847V25.2221L23.564 25.6508C22.6213 26.1906 21.8858 27.1026 21.5989 28.1589L22.0814 28.29L21.5989 28.159C21.2698 29.3712 21.4504 30.6106 22.1209 31.6361C23.0719 33.0903 23.4409 34.375 23.3275 35.5854C23.2391 36.5293 23.5399 37.4385 24.1751 38.136C24.5465 38.5438 25.0108 38.8482 25.5205 39.0287L26.1874 39.2649V38.5574V35.9064C26.1874 34.6317 27.2253 33.5939 28.4999 33.5939C29.7746 33.5939 30.8124 34.6317 30.8124 35.9064V38.5574V39.2649L31.4793 39.0287C31.9891 38.8482 32.4534 38.5437 32.8248 38.136L32.4551 37.7993L32.8248 38.136C33.4599 37.4385 33.7608 36.5293 33.6723 35.5854L33.1745 35.6321L33.6723 35.5854C33.5589 34.375 33.928 33.0903 34.8789 31.6361L34.4605 31.3625L34.8789 31.6361C35.5495 30.6106 35.7302 29.3713 35.401 28.1589C35.1141 27.1026 34.3784 26.1907 33.4359 25.6508L32.6874 25.2221V26.0847V26.5314C32.6874 28.8399 30.8085 30.7189 28.4999 30.7189C26.1914 30.7189 24.3125 28.8399 24.3125 26.5314V26.0847ZM31.9725 24.4479C32.0737 24.3649 32.207 24.3315 32.3354 24.3571H24.6647C24.7931 24.3315 24.9263 24.3649 25.0275 24.448C25.1288 24.5311 25.1875 24.6552 25.1875 24.7862V26.5315C25.1875 28.3584 26.673 29.844 28.5 29.844C30.3269 29.844 31.8125 28.3584 31.8125 26.5315V24.7862C31.8125 24.6551 31.8712 24.531 31.9725 24.4479Z" fill="#1EBCB4"/>
<path d="M34.7868 33.5939H35.6138M34.7868 33.5939H35.6138M35.6138 33.5939H39.7499C39.9914 33.5939 40.1874 33.7897 40.1874 34.0315V43.5314C40.1874 43.773 39.9915 43.9689 39.7499 43.9689H17.25C17.0084 43.9689 16.8125 43.773 16.8125 43.5314V34.0315C16.8125 33.7899 17.0084 33.594 17.25 33.594H21.3861H22.2131L21.8289 32.8617C21.7008 32.6176 21.5548 32.3692 21.3886 32.1151L20.9702 32.3887M35.6138 33.5939L20.9702 32.3887M39.3124 43.0938V42.5938M39.3124 43.0938V42.5938M24.4151 24.3934C24.4495 24.3883 24.4806 24.3843 24.5131 24.38M24.4151 24.3934L24.5131 24.38M24.5131 24.38C24.5205 24.3791 24.528 24.3781 24.5356 24.3771M24.5131 24.38L24.5356 24.3771M34.7868 33.5939L35.171 32.8616C35.299 32.6175 35.445 32.3691 35.6112 32.115L34.7868 33.5939ZM36.2422 27.9181C35.7914 26.2743 34.4892 24.943 32.8435 24.4488C32.7529 24.4216 32.6661 24.4053 32.5846 24.3932C32.5505 24.3882 32.5196 24.3842 32.4873 24.38C32.4799 24.3791 32.4723 24.3781 32.4647 24.3771L36.2422 27.9181ZM36.2422 27.9181L36.2454 27.9297C36.6449 29.401 36.4167 30.8832 35.6113 32.1149L36.2422 27.9181ZM20.9702 32.3887L21.3886 32.1151C20.5832 30.8833 20.355 29.4012 20.7544 27.9298C21.2022 26.281 22.5064 24.9446 24.1561 24.4489L20.9702 32.3887ZM39.3124 43.0938H38.8124H18.1875H17.6875V42.5938V34.9689V34.4689H18.1875H21.9652H22.4357L22.4643 34.9385C22.4758 35.1274 22.474 35.316 22.4563 35.5038L39.3124 43.0938ZM39.3124 42.5938V34.9689V34.4689H38.8124H35.0346H34.5639L34.5356 34.9387C34.5242 35.1273 34.5259 35.3159 34.5435 35.5037L39.3124 42.5938ZM23.5282 38.725V38.7251C24.3202 39.5948 25.4495 40.0938 26.6249 40.0938C26.8665 40.0938 27.0624 39.8979 27.0624 39.6563V35.9064C27.0624 35.1133 27.7069 34.4689 28.4999 34.4689C29.293 34.4689 29.9374 35.1133 29.9374 35.9064V39.6563C29.9374 39.8979 30.1333 40.0938 30.3749 40.0938C31.5504 40.0938 32.6797 39.5948 33.4717 38.7251C34.2623 37.8569 34.6539 36.6825 34.5435 35.5038L23.5282 38.725ZM23.5282 38.725C22.7375 37.8569 22.3459 36.6824 22.4563 35.5038L23.5282 38.725ZM24.4151 24.3934C24.333 24.4056 24.246 24.4219 24.1561 24.4489L24.4151 24.3934ZM24.5356 24.3771C24.5712 24.3725 24.6198 24.366 24.6646 24.3571L24.5356 24.3771ZM24.3125 26.0847V25.2221L23.564 25.6508C22.6213 26.1906 21.8858 27.1026 21.5989 28.1589L22.0814 28.29L21.5989 28.159C21.2698 29.3712 21.4504 30.6106 22.1209 31.6361C23.0719 33.0903 23.4409 34.375 23.3275 35.5854C23.2391 36.5293 23.5399 37.4385 24.1751 38.136C24.5465 38.5438 25.0108 38.8482 25.5205 39.0287L26.1874 39.2649V38.5574V35.9064C26.1874 34.6317 27.2253 33.5939 28.4999 33.5939C29.7746 33.5939 30.8124 34.6317 30.8124 35.9064V38.5574V39.2649L31.4793 39.0287C31.9891 38.8482 32.4534 38.5437 32.8248 38.136L32.4551 37.7993L32.8248 38.136C33.4599 37.4385 33.7608 36.5293 33.6723 35.5854L33.1745 35.6321L33.6723 35.5854C33.5589 34.375 33.928 33.0903 34.8789 31.6361L34.4605 31.3625L34.8789 31.6361C35.5495 30.6106 35.7302 29.3713 35.401 28.1589C35.1141 27.1026 34.3784 26.1907 33.4359 25.6508L32.6874 25.2221V26.0847V26.5314C32.6874 28.8399 30.8085 30.7189 28.4999 30.7189C26.1914 30.7189 24.3125 28.8399 24.3125 26.5314V26.0847ZM31.9725 24.4479C32.0737 24.3649 32.207 24.3315 32.3354 24.3571H24.6647C24.7931 24.3315 24.9263 24.3649 25.0275 24.448C25.1288 24.5311 25.1875 24.6552 25.1875 24.7862V26.5315C25.1875 28.3584 26.673 29.844 28.5 29.844C30.3269 29.844 31.8125 28.3584 31.8125 26.5315V24.7862C31.8125 24.6551 31.8712 24.531 31.9725 24.4479Z" stroke="#1EBCB4" stroke-width="0.999994"/>
</g>
<path id="Vector_5" d="M32.3355 13.0752C32.5401 13.1159 32.6876 13.2956 32.6876 13.5043V17.1565C32.6876 19.465 30.8086 21.344 28.5001 21.344C26.1915 21.344 24.3126 19.465 24.3125 17.1565V17.1564V13.5043C24.3125 13.2956 24.4599 13.116 24.6646 13.0752C25.9394 12.8214 27.1878 13.026 28.2491 13.642L28.5 13.7876L28.751 13.642C29.8124 13.026 31.0608 12.8215 32.3355 13.0752ZM25.683 13.8451L25.6853 14.3451H25.1876V17.1565C25.1876 18.9834 26.6732 20.469 28.5001 20.469C30.3271 20.469 31.8126 18.9834 31.8126 17.1565V14.3451V13.8493L31.3168 13.8452C30.3912 13.8375 29.5042 14.1229 28.7639 14.6824C28.6078 14.8003 28.3924 14.8003 28.2363 14.6823C27.6318 14.2255 26.9291 13.9508 26.1876 13.8701V13.8451H25.76C25.7344 13.8449 25.7087 13.8449 25.683 13.8451Z" fill="#1EBCB4" stroke="#1EBCB4" stroke-width="0.999994"/>
<path id="Vector_6" d="M18.8157 23.0905L18.8156 23.0905L16.9406 21.2155C16.7698 21.0446 16.7698 20.7677 16.9406 20.5968C17.1115 20.4259 17.3885 20.426 17.5593 20.5968H17.5594L17.834 20.8715L18.6875 21.725V20.518V19.0312C18.6875 18.7896 18.8834 18.5938 19.125 18.5938C19.3666 18.5938 19.5625 18.7896 19.5625 19.0312V20.518V21.725L20.4161 20.8715L20.6907 20.5968C20.8616 20.4259 21.1386 20.426 21.3094 20.5968C21.4803 20.7677 21.4803 21.0447 21.3094 21.2155L19.4345 23.0905C19.3514 23.1736 19.2341 23.2187 19.1251 23.2187C19.0159 23.2187 18.8971 23.1718 18.8157 23.0905Z" fill="#1EBCB4" stroke="#1EBCB4" stroke-width="0.999994"/>
<path id="Vector_7" d="M37.5657 23.0905H37.5656L35.6906 21.2155C35.5198 21.0446 35.5198 20.7677 35.6906 20.5968C35.8615 20.4259 36.1386 20.426 36.3093 20.5968H36.3094L36.584 20.8715L37.4375 21.725V20.518V19.0312C37.4375 18.7896 37.6334 18.5938 37.875 18.5938C38.1167 18.5938 38.3125 18.7896 38.3125 19.0312V20.518V21.725L39.1661 20.8715L39.4407 20.5968L39.3125 20.4687L39.4407 20.5968C39.6116 20.4259 39.8886 20.426 40.0594 20.5968C40.2303 20.7677 40.2303 21.0447 40.0594 21.2155L38.1846 23.0905H38.1845C38.1017 23.1733 37.9836 23.2187 37.8751 23.2187C37.7649 23.2187 37.6489 23.1738 37.5657 23.0905Z" fill="#1EBCB4" stroke="#1EBCB4" stroke-width="0.999994"/>
</g>
</g>
<defs>
<clipPath id="clip0_1_343">
<rect width="56" height="56" fill="white" transform="translate(0.5 0.46875)"/>
</clipPath>
</defs>
</svg>
