<svg width="57" height="57" viewBox="0 0 57 57" fill="none" xmlns="http://www.w3.org/2000/svg">
<g id="6319e7931c3dd70d6b31fc3d_Service%20Dermatology%20Icon.svg" clip-path="url(#clip0_1_259)">
<path id="Vector" opacity="0.3" d="M28.5 56.4688C43.964 56.4688 56.5 43.9327 56.5 28.4688C56.5 13.0048 43.964 0.46875 28.5 0.46875C13.036 0.46875 0.5 13.0048 0.5 28.4688C0.5 43.9327 13.036 56.4688 28.5 56.4688Z" fill="#FFB201"/>
<path id="Vector_2" d="M13.8335 27.1355L24.5002 26.4688L22.5002 31.1355L25.1668 35.1354L28.5002 36.4688L32.5002 34.4688L33.8335 30.4688V26.4688L43.1668 27.1355V41.8021H13.8335V27.1355Z" fill="white"/>
<path id="Vector_3" d="M28.9494 27.6811L28.9385 28.0442L29.2804 28.1668C30.1782 28.4886 30.8203 29.3478 30.8203 30.3516C30.8203 31.6306 29.779 32.6719 28.5 32.6719C27.221 32.6719 26.1797 31.6306 26.1797 30.3516C26.1797 29.3408 26.831 28.4769 27.7386 28.1604L28.0641 28.0469L28.0738 27.7024C28.1944 23.4368 29.3309 20.2153 31.3877 18.0476C32.4103 16.9699 33.6682 16.1505 35.1324 15.6138C36.5044 15.111 38.0722 14.8516 39.7969 14.8516C40.0385 14.8516 40.2344 15.0475 40.2344 15.2891C40.2344 15.5307 40.0385 15.7266 39.7969 15.7266C36.4147 15.7266 33.7345 16.7522 31.8781 18.811C30.0315 20.859 29.0645 23.8585 28.9494 27.6811ZM29.9453 30.3516C29.9453 29.5542 29.2974 28.9063 28.5 28.9063C27.7026 28.9063 27.0547 29.5542 27.0547 30.3516C27.0547 31.149 27.7026 31.7969 28.5 31.7969C29.2974 31.7969 29.9453 31.149 29.9453 30.3516Z" fill="#FFB201" stroke="#FFB201"/>
<path id="Vector_4" d="M43.125 27.0234H42.625H34.4484H33.6569L33.9969 27.7382C34.2588 28.2888 34.4368 28.8774 34.5239 29.485L34.5854 29.914H35.0189H42.625H43.125V29.414V27.5234V27.0234ZM23.0031 27.7382L23.3432 27.0234H22.5516H14.375H13.875V27.5234V29.414V29.914H14.375H21.9811H22.4146L22.4761 29.485C22.5632 28.8773 22.7411 28.2888 23.0031 27.7382ZM13.875 40.7109V41.2109H14.375H42.625H43.125V40.7109V31.289V30.789H42.625H35.0189H34.5854L34.524 31.2182C34.1021 34.1648 31.5606 36.4375 28.5 36.4375C25.4394 36.4375 22.8979 34.1648 22.476 31.2182L22.4146 30.789H21.9811H14.375H13.875V31.289V40.7109ZM32.7097 26.1484H43.5625C43.8041 26.1484 44 26.3443 44 26.5859V41.6484C44 41.89 43.8041 42.0859 43.5625 42.0859H13.4375C13.1959 42.0859 13 41.89 13 41.6484V26.5859C13 26.3443 13.1959 26.1484 13.4375 26.1484H24.2903C24.4628 26.1484 24.6193 26.2498 24.6897 26.4074C24.7601 26.5649 24.7313 26.7492 24.6163 26.8777C23.7604 27.8337 23.2891 29.0678 23.2891 30.3515C23.2891 33.2253 25.6262 35.5625 28.5 35.5625C31.3738 35.5625 33.7109 33.2253 33.7109 30.3515C33.7109 29.0678 33.2396 27.8337 32.3837 26.8777C32.2687 26.7492 32.2399 26.5649 32.3103 26.4074C32.3807 26.2498 32.5371 26.1484 32.7097 26.1484Z" fill="#FFB201" stroke="#FFB201"/>
<path id="Vector_5" d="M17.4378 33.1797C16.9474 33.1797 16.4776 33.6109 16.5003 34.1172C16.5231 34.6252 16.9122 35.0547 17.4378 35.0547C17.9282 35.0547 18.398 34.6235 18.3753 34.1172C18.3526 33.6093 17.9634 33.1797 17.4378 33.1797Z" fill="#FFB201"/>
<path id="Vector_6" d="M20.9691 36.9453C20.4787 36.9453 20.0089 37.3765 20.0316 37.8828C20.0543 38.3907 20.4435 38.8203 20.9691 38.8203C21.4594 38.8203 21.9292 38.3891 21.9066 37.8828C21.8838 37.3748 21.4946 36.9453 20.9691 36.9453Z" fill="#FFB201"/>
<path id="Vector_7" d="M37.1566 33.1797C36.6662 33.1797 36.1964 33.6109 36.2191 34.1172C36.2418 34.6252 36.631 35.0547 37.1566 35.0547C37.6469 35.0547 38.1167 34.6235 38.0941 34.1172C38.0713 33.6093 37.6821 33.1797 37.1566 33.1797Z" fill="#FFB201"/>
<path id="Vector_8" d="M39.7972 36.9453C39.3068 36.9453 38.837 37.3765 38.8597 37.8828C38.8824 38.3907 39.2716 38.8203 39.7972 38.8203C40.2876 38.8203 40.7574 38.3891 40.7347 37.8828C40.7119 37.3748 40.3227 36.9453 39.7972 36.9453Z" fill="#FFB201"/>
</g>
<defs>
<clipPath id="clip0_1_259">
<rect width="56" height="56" fill="white" transform="translate(0.5 0.46875)"/>
</clipPath>
</defs>
</svg>
