<svg width="57" height="57" viewBox="0 0 57 57" fill="none" xmlns="http://www.w3.org/2000/svg">
<g id="6319e79778f81d5bdb8e6502_Service%20Maternity%20icon.svg" clip-path="url(#clip0_1_361)">
<path id="Vector" opacity="0.3" d="M28.5 56.4688C43.964 56.4688 56.5 43.9327 56.5 28.4688C56.5 13.0048 43.964 0.46875 28.5 0.46875C13.036 0.46875 0.5 13.0048 0.5 28.4688C0.5 43.9327 13.036 56.4688 28.5 56.4688Z" fill="#A27FFF"/>
<g id="Group">
<path id="Vector_2" d="M22.5 29.8022L24.5 30.4689H27.8333L28.5 33.1355L25.1667 36.4689L22.5 35.1355L20.5 32.4689L22.5 29.8022Z" fill="white"/>
<path id="Vector_3" d="M23.8332 22.4686L30.4998 24.4686L34.4998 25.1353L33.8332 13.1353L37.8332 13.802V29.802L29.1665 27.802L23.1665 24.4686L23.8332 22.4686Z" fill="white"/>
<path id="Vector_4" d="M27.8333 13.1355L32.5 12.4688L31.8333 16.4688H26.5L27.8333 13.1355Z" fill="white"/>
<path id="Vector_5" d="M21.9327 39.6864C21.3716 41.0346 21.0667 42.4756 21.0335 43.9355C21.0335 44.23 21.2723 44.4688 21.5668 44.4688H37.5668C37.7236 44.4688 37.8725 44.3997 37.9738 44.28C38.0751 44.1603 38.1186 44.0021 38.0927 43.8475C38.049 43.5808 36.9887 37.3195 34.8442 33.0309C34.3537 31.944 34.1044 30.7637 34.1135 29.5712C35.2418 29.7961 36.3812 29.9616 37.5268 30.0672L37.5668 30.0688C37.8115 30.0688 38.0247 29.9024 38.0842 29.6651C38.9434 26.2299 38.7876 21.4736 38.6847 18.3264C38.6575 17.4891 38.6314 16.7627 38.6314 16.2144C38.6299 15.163 38.2199 14.1532 37.4879 13.3984C36.9512 12.816 36.1987 12.4799 35.4068 12.4688H29.1226C28.5616 12.4672 28.0414 12.7613 27.7535 13.2427C27.0456 14.4548 26.0839 15.4995 24.9343 16.3051C24.6518 16.4918 24.3508 16.6489 24.0362 16.7739C22.7674 17.2687 21.9599 18.5223 22.034 19.8821C22.0702 20.8902 22.5101 21.8413 23.2548 22.5216C23.1433 22.5614 23.0343 22.6078 22.9284 22.6608C22.2741 22.9765 21.7976 23.5711 21.6319 24.2784C19.1596 25.9074 17.719 28.7104 17.8335 31.6688C17.8335 36.0955 19.9695 38.4533 21.9327 39.6864ZM28.6655 13.7947C28.7618 13.634 28.9353 13.5356 29.1226 13.5355H31.6644C31.5535 14.5685 31.0778 16.7355 29.0335 16.7355C28.164 16.735 27.2966 16.6527 26.4426 16.4896C27.3127 15.7062 28.0618 14.798 28.6655 13.7947ZM23.1002 19.8459C23.0394 18.9363 23.5779 18.0932 24.4287 17.7659C24.7317 17.6422 25.0241 17.4938 25.3028 17.3221C26.5217 17.6408 27.7763 17.8021 29.0362 17.8021C31.698 17.8021 32.5919 15.2544 32.7428 13.5355H33.698C32.8458 17.0528 32.6731 20.7006 33.1892 24.2827C32.3638 24.1234 31.5284 24.0206 30.689 23.9749C30.0084 23.9548 29.3319 23.8613 28.6714 23.696C28.2234 23.5467 27.7647 23.3584 27.3252 23.1765C26.632 22.864 25.9112 22.6165 25.1722 22.4373C24.0039 22.0973 23.1748 21.0604 23.1002 19.8459ZM23.4052 23.6128C23.8654 23.4004 24.3833 23.348 24.8767 23.464C24.9204 23.4785 24.9657 23.4877 25.0116 23.4912C25.664 23.6611 26.301 23.8858 26.9156 24.1627C27.3743 24.3515 27.8484 24.5472 28.3316 24.7083C29.0749 24.9049 29.8383 25.0157 30.6068 25.0384C32.1263 25.152 33.8495 25.2805 35.1135 26.2288C35.2659 26.3431 35.4678 26.3675 35.643 26.2926C35.8182 26.2178 35.9402 26.0551 35.963 25.8659C35.9858 25.6768 35.9059 25.4898 35.7535 25.3755C35.317 25.0554 34.8367 24.7998 34.3274 24.6165C33.712 20.9307 33.8697 17.1572 34.7903 13.5355H35.4068C35.9112 13.5515 36.3875 13.771 36.7274 14.144C37.257 14.6995 37.5568 15.4347 37.5668 16.2021C37.5668 16.7717 37.5908 17.5104 37.6202 18.3611C37.7167 21.3115 37.8602 25.7024 37.1556 28.9579C35.5402 28.7771 29.9194 27.9888 25.0815 25.3664C24.4258 24.7877 23.6219 24.403 22.7599 24.2555C22.8961 23.975 23.1237 23.7493 23.4052 23.6155V23.6128ZM22.0922 25.2688H22.1002C22.947 25.2919 23.7583 25.6145 24.3898 26.1792C24.4259 26.2151 24.4668 26.2458 24.5114 26.2704C27.1973 27.6823 30.065 28.7175 33.0335 29.3467C32.9989 30.7801 33.2907 32.2026 33.8868 33.5067C35.5791 36.8859 36.601 41.7035 36.9268 43.4021H22.1274C22.2094 42.3033 22.4613 41.2238 22.874 40.2021C24.5263 40.9705 26.3287 41.3621 28.1508 41.3488C28.6444 41.3488 29.1376 41.3214 29.6282 41.2667C29.8176 41.2455 29.9813 41.1249 30.0577 40.9503C30.1341 40.7757 30.1115 40.5737 29.9985 40.4202C29.8855 40.2668 29.6992 40.1853 29.5098 40.2064C27.2315 40.4877 24.9214 40.0713 22.8847 39.0123C21.066 37.9989 18.9002 35.904 18.9002 31.6688C18.9002 28.8917 19.9823 26.7456 22.0922 25.2688Z" fill="#A27FFF" stroke="#A27FFF" stroke-width="0.5"/>
<path id="Vector_6" d="M23.4555 36.0611C23.7585 36.3139 24.0806 36.5832 24.4193 36.8733C24.6188 37.044 24.913 37.044 25.1126 36.8733C25.4513 36.5832 25.7734 36.3139 26.0763 36.0611C27.8598 34.5752 29.0331 33.5939 29.0331 32.0728C29.058 31.4162 28.8176 30.7772 28.3662 30.2999C27.9147 29.8225 27.2901 29.5469 26.6331 29.5352C25.9269 29.5342 25.2516 29.8246 24.7665 30.3379C24.2814 29.8246 23.606 29.5342 22.8998 29.5352C22.2429 29.5469 21.6183 29.8225 21.1668 30.2999C20.7153 30.7772 20.4749 31.4162 20.4998 32.0728C20.4998 33.5939 21.6731 34.5752 23.4555 36.0611ZM22.8998 30.6019C23.4829 30.6222 24.0118 30.9492 24.2907 31.4616C24.3815 31.6392 24.5638 31.7514 24.7633 31.7523H24.7665C24.9665 31.7514 25.1495 31.6394 25.2411 31.4616C25.5202 30.9488 26.0496 30.6217 26.6331 30.6019C27.0076 30.6127 27.3615 30.7758 27.6131 31.0533C27.8647 31.3309 27.9923 31.6991 27.9665 32.0728C27.9665 33.0947 26.9985 33.9032 25.3942 35.2424C25.1931 35.4104 24.9835 35.5848 24.7665 35.7683C24.5494 35.5848 24.3398 35.4104 24.1387 35.2424C22.5345 33.9032 21.5665 33.0947 21.5665 32.0728C21.5406 31.6991 21.6682 31.3309 21.9198 31.0533C22.1714 30.7758 22.5253 30.6127 22.8998 30.6019Z" fill="#A27FFF" stroke="#A27FFF" stroke-width="0.5"/>
</g>
</g>
<defs>
<clipPath id="clip0_1_361">
<rect width="56" height="56" fill="white" transform="translate(0.5 0.46875)"/>
</clipPath>
</defs>
</svg>
