<svg width="57" height="57" viewBox="0 0 57 57" fill="none" xmlns="http://www.w3.org/2000/svg">
<g id="6319f3be056b456f93bc6df3_Appointment%20Get%20the%20Schedule.svg" clip-path="url(#clip0_1_421)">
<path id="Vector" opacity="0.3" d="M28.4865 56.4688C43.943 56.4688 56.473 43.9327 56.473 28.4688C56.473 13.0048 43.943 0.46875 28.4865 0.46875C13.03 0.46875 0.5 13.0048 0.5 28.4688C0.5 43.9327 13.03 56.4688 28.4865 56.4688Z" fill="#1EBCB4"/>
<path id="Vector_2" d="M35.1498 43.1353C38.8299 43.1353 41.8132 40.1506 41.8132 36.4687C41.8132 32.7868 38.8299 29.802 35.1498 29.802C31.4697 29.802 28.4864 32.7868 28.4864 36.4687C28.4864 40.1506 31.4697 43.1353 35.1498 43.1353Z" fill="white"/>
<path id="Vector_3" d="M20.01 28.0619H29.8987C30.2509 28.0619 30.5366 27.7761 30.5366 27.4236C30.5366 27.0712 30.2509 26.7854 29.8987 26.7854H20.01C19.6576 26.7854 19.3721 27.0712 19.3721 27.4236C19.3721 27.7761 19.6576 28.0619 20.01 28.0619Z" fill="#1EBCB4" stroke="#1EBCB4" stroke-width="0.5"/>
<path id="Vector_4" d="M25.9303 30.9343H20.01C19.6576 30.9343 19.3721 31.2201 19.3721 31.5726C19.3721 31.925 19.6576 32.2108 20.01 32.2108H25.9303C26.2826 32.2108 26.5683 31.925 26.5683 31.5726C26.5683 31.2201 26.2826 30.9343 25.9303 30.9343Z" fill="#1EBCB4" stroke="#1EBCB4" stroke-width="0.5"/>
<path id="Vector_5" d="M37.0055 29.5172V18.4878C37.0051 16.7254 35.5771 15.297 33.8157 15.2964H31.2V14.0773C31.2 13.7246 30.9145 13.439 30.562 13.439C30.2097 13.439 29.924 13.7246 29.924 14.0773V15.2964H21.2475V14.0773C21.2475 13.7246 20.962 13.439 20.6096 13.439C20.2573 13.439 19.9716 13.7246 19.9716 14.0773V15.2964H17.3559C15.5945 15.297 14.1668 16.7254 14.166 18.4878V35.779C14.1668 37.5412 15.5945 38.9696 17.3559 38.9704H29.165C30.3925 42.116 33.6845 43.9418 37.0014 43.3171C40.3182 42.6926 42.7214 39.7942 42.722 36.4173C42.7282 32.9897 40.2592 30.1302 37.0055 29.5172ZM17.3625 16.573H19.9782V17.7921C19.9782 18.1446 20.2637 18.4304 20.6161 18.4304C20.9684 18.4304 21.2541 18.1446 21.2541 17.7921V16.573H29.9306V17.7921C29.9306 18.1446 30.2161 18.4304 30.5686 18.4304C30.9208 18.4304 31.2065 18.1446 31.2065 17.7921V16.573H33.8222C34.8779 16.576 35.733 17.4315 35.7362 18.4878V20.0325H15.4485V18.4878C15.4493 17.4305 16.3058 16.5738 17.3625 16.573ZM17.3625 37.6938C16.3066 37.6908 15.4515 36.8351 15.4485 35.779V21.3027H35.7296V29.3961H35.7104C33.6269 29.3993 31.6521 30.327 30.3192 31.9295C28.986 33.5318 28.4325 35.6433 28.8076 37.6938H17.3625ZM35.7104 42.1618C32.5395 42.1618 29.9687 39.5899 29.9687 36.4173C29.9687 33.2446 32.5395 30.6727 35.7104 30.6727C38.8816 30.6727 41.4522 33.2446 41.4522 36.4173C41.4474 39.5879 38.8796 42.157 35.7104 42.1618Z" fill="#1EBCB4" stroke="#1EBCB4" stroke-width="0.5"/>
<path id="Vector_6" d="M38.6645 34.1259L34.8751 37.7449L32.9164 35.779C32.6682 35.5305 32.2654 35.5305 32.017 35.779C31.7684 36.0275 31.7684 36.4305 32.017 36.679L34.422 39.0853C34.5416 39.2058 34.7051 39.2726 34.8751 39.2704C35.0398 39.2718 35.1981 39.2076 35.3151 39.0915L39.5513 35.0384C39.6733 34.9217 39.7439 34.7616 39.7477 34.5926C39.751 34.4237 39.6874 34.2603 39.5704 34.1386C39.322 33.8893 38.9199 33.8835 38.6645 34.1259Z" fill="#1EBCB4" stroke="#1EBCB4" stroke-width="0.5"/>
</g>
<defs>
<clipPath id="clip0_1_421">
<rect width="56" height="56" fill="white" transform="translate(0.5 0.46875)"/>
</clipPath>
</defs>
</svg>
