<svg width="57" height="57" viewBox="0 0 57 57" fill="none" xmlns="http://www.w3.org/2000/svg">
<g id="6319e793be3eee77e19bdc4f_Service%20Cardiology%20Icon.svg" clip-path="url(#clip0_1_330)">
<path id="Vector" opacity="0.3" d="M28.5 56.4688C43.964 56.4688 56.5 43.9327 56.5 28.4688C56.5 13.0048 43.964 0.46875 28.5 0.46875C13.036 0.46875 0.5 13.0048 0.5 28.4688C0.5 43.9327 13.036 56.4688 28.5 56.4688Z" fill="#FFB201"/>
<path id="Vector_2" d="M23.1665 21.802L28.4998 21.1353L33.8332 23.1353L35.8332 28.4686L35.1665 39.1353L29.1665 39.802L23.1665 35.1353L21.1665 28.4686L23.1665 21.802Z" fill="white"/>
<path id="Vector_3" d="M29.4375 12.4688V20.0212C29.1296 19.987 28.8169 19.9688 28.5 19.9688C28.1674 19.9688 27.8394 19.9887 27.5168 20.0264C27.0753 15.7859 23.4804 12.4688 19.125 12.4688H18.1875V18.0938H19.125C20.6758 18.0938 21.9375 19.3555 21.9375 20.9062V23.1094C20.7656 24.5586 20.0625 26.4017 20.0625 28.4063C20.0625 32.7342 22.3071 36.5452 25.6875 38.7248V44.4688H31.3125V40.6203C31.6219 40.6441 31.9346 40.6562 32.25 40.6562C34.8347 40.6562 36.9375 38.5534 36.9375 35.9688V28.4062C36.9375 26.4018 36.2344 24.5586 35.0625 23.1094V22.7812C35.0625 21.2304 36.3242 19.9688 37.875 19.9688H38.8125V14.3438H37.875C36.9124 14.3438 35.9711 14.5121 35.0625 14.8457V12.4688H29.4375ZM20.0625 16.313V14.4106C23.0932 14.846 25.4617 17.36 25.6721 20.4568C25.0105 20.6929 24.3866 21.0091 23.8125 21.3941V20.9062C23.8125 18.6425 22.1994 16.7485 20.0625 16.313ZM29.4375 42.5938H27.5625V39.7135C28.1647 39.9667 28.7912 40.1723 29.4375 40.3265V42.5938ZM35.0625 35.9688C35.0625 37.5196 33.8008 38.7812 32.25 38.7812C31.2754 38.7812 30.3319 38.6445 29.4375 38.389V36.9062C29.4375 35.1492 30.6311 33.6465 32.3401 33.2522L33.3177 33.0266L33.0265 32.0665C32.5438 30.4753 31.1015 29.4062 29.4375 29.4062V31.2812C29.9423 31.2812 30.4163 31.4888 30.7614 31.8314C30.1126 32.1427 29.5244 32.5779 29.0352 33.1124C28.1941 32.9277 27.5625 32.177 27.5625 31.2812H25.6875C25.6875 32.8389 26.6422 34.1772 27.997 34.7431C27.7134 35.4246 27.5625 36.1607 27.5625 36.9062V37.6461C24.2261 35.926 21.9375 32.43 21.9375 28.4062C21.9375 25.1066 24.3856 22.3683 27.5608 21.9112C27.5251 22.9139 26.6987 23.7188 25.6875 23.7188V25.5938C26.5652 25.5938 27.3728 25.2899 28.0124 24.7829C28.7646 26.3689 30.381 27.4688 32.25 27.4688H33.1875V25.5938H32.25C30.6992 25.5938 29.4375 24.3321 29.4375 22.7812V21.9111C32.6136 22.3674 35.0625 25.106 35.0625 28.4062V35.9688ZM36.9375 16.2896V18.188C35.2149 18.5391 33.8334 19.8382 33.3622 21.5144C32.7363 21.0715 32.0476 20.712 31.3125 20.4513V14.3438H33.1875V17.9519L34.5966 17.1317C35.3482 16.6942 36.1324 16.4125 36.9375 16.2896Z" fill="#FFB201"/>
</g>
<defs>
<clipPath id="clip0_1_330">
<rect width="56" height="56" fill="white" transform="translate(0.5 0.46875)"/>
</clipPath>
</defs>
</svg>
