<svg width="57" height="57" viewBox="0 0 57 57" fill="none" xmlns="http://www.w3.org/2000/svg">
<g id="6319e794245e73766d00b0f6_Service%20Psychiatrist%20Icon.svg" clip-path="url(#clip0_1_291)">
<path id="Vector" opacity="0.3" d="M28.5 56.4688C43.964 56.4688 56.5 43.9327 56.5 28.4688C56.5 13.0048 43.964 0.46875 28.5 0.46875C13.036 0.46875 0.5 13.0048 0.5 28.4688C0.5 43.9327 13.036 56.4688 28.5 56.4688Z" fill="#FFB201"/>
<g id="Group">
<path id="Vector_2" d="M28.5 29.8022C32.9183 29.8022 36.5 26.2205 36.5 21.8022C36.5 17.384 32.9183 13.8022 28.5 13.8022C24.0817 13.8022 20.5 17.384 20.5 21.8022C20.5 26.2205 24.0817 29.8022 28.5 29.8022Z" fill="white"/>
<path id="Vector_3" d="M32.6869 28.9227C34.4878 28.8337 35.5959 27.6729 35.5959 25.8482C35.5959 25.7118 35.588 25.575 35.5722 25.4395C36.78 24.668 37.2994 23.6352 37.2994 22.0342C37.2994 20.4336 36.7799 19.4007 35.5722 18.6289C35.588 18.4933 35.5959 18.3566 35.5959 18.2202C35.5959 16.3955 34.4878 15.2347 32.6869 15.1457C32.2046 14.2457 31.2611 13.6872 30.1699 13.6721C29.5337 13.6637 29.0127 13.8551 28.6201 14.2423C28.5784 14.2835 28.5384 14.3268 28.5001 14.3722C28.4617 14.3268 28.4218 14.2835 28.38 14.2423C27.9873 13.8551 27.4654 13.6636 26.8302 13.6721C25.7391 13.6873 24.7958 14.2456 24.3132 15.1457C22.5123 15.2347 21.4042 16.3955 21.4042 18.2202C21.4042 18.3566 21.4122 18.4934 21.4279 18.6289C20.2201 19.4004 19.7007 20.4332 19.7007 22.0342C19.7007 23.6348 20.2202 24.6677 21.4279 25.4395C21.4121 25.5751 21.4042 25.7118 21.4042 25.8482C21.4042 27.6729 22.5123 28.8337 24.3132 28.9227C24.7956 29.8227 25.739 30.3812 26.8302 30.3963C26.8442 30.3965 26.8582 30.3966 26.8721 30.3966C27.4888 30.3966 27.996 30.2048 28.38 29.8261C28.4217 29.7849 28.4617 29.7416 28.5001 29.6962C28.5384 29.7416 28.5783 29.7849 28.6201 29.8261C29.0041 30.2048 29.5112 30.3966 30.1279 30.3966C30.1419 30.3966 30.1559 30.3965 30.1699 30.3963C31.2611 30.3811 32.2043 29.8228 32.6869 28.9227ZM27.8751 27.5114C27.8751 28.2029 27.7462 28.6956 27.5024 28.9361C27.3547 29.0817 27.1399 29.1507 26.8476 29.1464C26.1979 29.1374 25.6453 28.8066 25.3876 28.2783C25.4752 28.1144 25.6066 27.9779 25.771 27.8828C26.002 27.7492 26.271 27.7137 26.5283 27.7829C26.8615 27.8725 27.2045 27.6747 27.294 27.3414C27.3836 27.008 27.1859 26.6652 26.8525 26.5756C26.2721 26.4198 25.6658 26.4997 25.1453 26.8007C24.7823 27.0106 24.4912 27.3104 24.2951 27.6698C23.206 27.5925 22.6542 26.9807 22.6542 25.8482C22.6542 25.7042 22.668 25.5599 22.6951 25.4188C22.7661 25.0494 22.5955 24.6757 22.2712 24.4893C21.2963 23.928 20.9508 23.2856 20.9508 22.0342C20.9508 20.7827 21.2963 20.1402 22.2708 19.5794C22.5955 19.3927 22.766 19.0192 22.6951 18.6492C22.6679 18.5084 22.6542 18.3641 22.6542 18.2202C22.6542 17.0059 23.2884 16.3902 24.5392 16.3902H24.5467C24.565 16.3902 24.5832 16.3896 24.6012 16.3885C24.9213 16.5232 25.1016 16.88 25.0092 17.2273C24.9206 17.5609 25.1191 17.9032 25.4526 17.9919C25.5064 18.0062 25.5604 18.013 25.6136 18.013C25.89 18.013 26.1428 17.8283 26.2172 17.5485C26.4219 16.7791 26.1382 15.9919 25.5582 15.5197C25.8517 15.1511 26.3173 14.9293 26.8477 14.922C27.1404 14.9178 27.3547 14.9867 27.5024 15.1323C27.7462 15.3728 27.8751 15.8655 27.8751 16.5571V27.5114ZM31.991 26.8412C32.0797 26.5076 31.8812 26.1653 31.5476 26.0765C31.2141 25.9878 30.8717 26.1864 30.783 26.5199C30.5784 27.2894 30.862 28.0765 31.442 28.5487C31.1486 28.9173 30.6829 29.1391 30.1526 29.1464C29.8597 29.1514 29.6455 29.0817 29.4978 28.9361C29.254 28.6956 29.1251 28.2029 29.1251 27.5114V16.5571C29.1251 15.8655 29.2541 15.3728 29.4979 15.1324C29.6456 14.9868 29.8597 14.9178 30.1526 14.922C30.8023 14.931 31.3549 15.2618 31.6126 15.7902C31.525 15.9541 31.3936 16.0906 31.2292 16.1857C30.9982 16.3192 30.7293 16.3547 30.4719 16.2856C30.1387 16.196 29.7957 16.3937 29.7062 16.7271C29.6167 17.0604 29.8144 17.4033 30.1477 17.4928C30.3416 17.5449 30.5383 17.5706 30.7338 17.5706C31.1236 17.5706 31.5083 17.4682 31.8549 17.2677C32.2179 17.0578 32.509 16.758 32.7051 16.3986C33.7942 16.4758 34.346 17.0877 34.346 18.2202C34.346 18.3642 34.3322 18.5085 34.3051 18.6496C34.2342 19.019 34.4047 19.3927 34.7291 19.5791C35.7039 20.1404 36.0494 20.7828 36.0494 22.0342C36.0494 23.2857 35.7039 23.9282 34.7294 24.489C34.4047 24.6757 34.2342 25.0492 34.3051 25.4192C34.3322 25.56 34.3459 25.7043 34.3459 25.8482C34.3459 27.0625 33.7117 27.6782 32.4609 27.6782H32.4561C32.4368 27.6781 32.4177 27.6787 32.3987 27.6798C32.0789 27.5452 31.8987 27.1884 31.991 26.8412Z" fill="#FFB201" stroke="#FFB201" stroke-width="0.5"/>
<path id="Vector_4" d="M24.9548 20.7549C24.2155 20.7549 23.5727 21.1767 23.2774 21.8557C22.9837 22.5309 23.1124 23.2841 23.6133 23.8216C23.6374 23.8474 23.662 23.8729 23.6872 23.8981C23.8092 24.0199 23.969 24.0807 24.1288 24.0807C24.2889 24.0807 24.449 24.0196 24.5711 23.8973C24.815 23.6531 24.8146 23.2573 24.5704 23.0134C24.5558 22.9989 24.5415 22.984 24.5276 22.9692C24.2927 22.7171 24.3886 22.4348 24.4237 22.3543C24.4593 22.2724 24.603 22.0049 24.9548 22.0049C25.3 22.0049 25.5798 21.7251 25.5798 21.3799C25.5798 21.0347 25.3 20.7549 24.9548 20.7549Z" fill="#FFB201" stroke="#FFB201" stroke-width="0.5"/>
<path id="Vector_5" d="M32.4294 23.0139C32.185 23.2577 32.1848 23.6535 32.4287 23.8977C32.5508 24.02 32.7109 24.0812 32.871 24.0812C33.0308 24.0812 33.1906 24.0202 33.3125 23.8985C33.3377 23.8734 33.3624 23.8478 33.3865 23.8219C33.8874 23.2846 34.016 22.5314 33.7223 21.8562C33.427 21.1772 32.7842 20.7554 32.0449 20.7554C31.6997 20.7554 31.4199 21.0352 31.4199 21.3804C31.4199 21.7256 31.6997 22.0054 32.0449 22.0054C32.3967 22.0054 32.5404 22.2729 32.576 22.3548C32.6111 22.4353 32.707 22.7175 32.4722 22.9695C32.4583 22.9845 32.444 22.9993 32.4294 23.0139Z" fill="#FFB201" stroke="#FFB201" stroke-width="0.5"/>
<path id="Vector_6" d="M22.9166 30.491L18.5595 26.1977V21.5753C18.5595 20.531 17.7099 19.6813 16.6656 19.6813C16.6557 19.6813 16.6012 19.6825 16.6001 19.6825C16.4933 19.6862 16.3872 19.699 16.2831 19.7206V19.2585C16.2831 18.2252 15.4911 17.3784 14.4799 17.3308C13.9423 17.3053 13.3948 17.5063 13.0158 17.8678C12.6928 18.1758 12.515 18.5773 12.515 18.9981C12.515 20.4722 12.506 27.3398 12.5 29.4896C12.4999 29.5403 12.5003 29.5907 12.5013 29.641C12.5305 31.1728 13.2094 32.66 14.3638 33.721C14.3736 33.7301 14.3838 33.7388 14.3943 33.7473L19.2678 37.6783V42.6406C19.2678 42.9858 19.5476 43.2656 19.8928 43.2656H24.2861C24.6313 43.2656 24.9111 42.9858 24.9111 42.6406V35.2562C24.9111 33.4768 24.1841 31.74 22.9166 30.491ZM16.6393 20.9318L16.6655 20.9313C17.0206 20.9313 17.3095 21.2202 17.3095 21.5753V25.485C16.9679 25.429 16.614 25.4615 16.283 25.5845V21.0571C16.3868 20.9802 16.5091 20.937 16.6393 20.9318ZM23.6611 42.0157H20.5178V37.3795C20.5178 37.1905 20.4323 37.0117 20.2852 36.893L15.1953 32.7875C14.2998 31.9573 13.7736 30.8029 13.751 29.6174C13.7503 29.5762 13.7499 29.5347 13.75 29.493C13.756 27.3425 13.765 20.4727 13.765 18.9981C13.765 18.9201 13.8032 18.8442 13.8786 18.7722C14.0111 18.6458 14.2238 18.5705 14.4211 18.5794C14.7585 18.5953 15.0331 18.8999 15.0331 19.2585V26.9407C15.012 27.0166 14.9953 27.0941 14.983 27.1729C14.8849 27.8022 15.092 28.4483 15.5371 28.9027L19.9393 33.5078C20.1778 33.7573 20.5734 33.7663 20.823 33.5277C21.0725 33.2892 21.0814 32.8935 20.8428 32.644L16.4378 28.0359C16.4357 28.0337 16.4335 28.0315 16.4313 28.0293C16.2575 27.8528 16.1798 27.6108 16.218 27.3655C16.2425 27.2087 16.3133 27.0657 16.424 26.95C16.444 26.9318 16.485 26.8947 16.5059 26.8758C16.816 26.6321 17.2558 26.6596 17.5345 26.9424C17.5366 26.9447 17.5388 26.9468 17.541 26.949L22.0392 31.3813C23.0699 32.3968 23.661 33.8092 23.661 35.2562V42.0157H23.6611Z" fill="#FFB201" stroke="#FFB201" stroke-width="0.5"/>
<path id="Vector_7" d="M44.485 18.998C44.485 18.5772 44.3072 18.1757 43.9842 17.8677C43.6053 17.5061 43.0583 17.3056 42.5202 17.3307C41.509 17.3782 40.7169 18.225 40.7169 19.2584V19.7204C40.613 19.6989 40.5072 19.686 40.4008 19.6824C40.3995 19.6824 40.3444 19.6812 40.3344 19.6812C39.29 19.6812 38.4404 20.5308 38.4404 21.5751V26.1975L34.0834 30.4908C32.8159 31.7398 32.0889 33.4766 32.0889 35.2561V42.6405C32.0889 42.9857 32.3687 43.2655 32.7139 43.2655H37.1071C37.4523 43.2655 37.7321 42.9857 37.7321 42.6405V37.6782L42.6056 33.7472C42.6161 33.7387 42.6263 33.73 42.6362 33.7208C43.7906 32.6598 44.4695 31.1727 44.4987 29.6407C44.4996 29.5906 44.5 29.5402 44.4999 29.4893C44.494 27.3397 44.485 20.4721 44.485 18.998ZM40.3304 20.9312L40.3609 20.9317C40.491 20.9369 40.6132 20.98 40.7169 21.057V25.584C40.3861 25.4612 40.0322 25.4287 39.6905 25.4848V21.5751C39.6905 21.2201 39.9794 20.9312 40.3304 20.9312ZM43.249 29.6171C43.2264 30.8028 42.7002 31.9572 41.8047 32.7874L36.7147 36.893C36.5677 37.0116 36.4821 37.1905 36.4821 37.3795V42.0155H33.3389V35.2562C33.3389 33.8092 33.93 32.3969 34.9607 31.3813L39.4588 26.949C39.4611 26.9468 39.4632 26.9446 39.4654 26.9424C39.7442 26.6594 40.1846 26.632 40.4937 26.8755C40.5146 26.8944 40.556 26.9319 40.5761 26.9502C40.6863 27.065 40.7574 27.2083 40.7818 27.3654C40.8201 27.6108 40.7424 27.8527 40.5685 28.0292C40.5667 28.031 40.565 28.0328 40.5633 28.0345L38.3431 30.3436C38.1038 30.5924 38.1116 30.988 38.3604 31.2273C38.6091 31.4665 39.0048 31.4589 39.2441 31.21L41.4622 28.9032C41.9077 28.4488 42.115 27.8023 42.0169 27.1728C42.0046 27.094 41.9878 27.0165 41.9667 26.9407V19.2584C41.9667 18.8998 42.2413 18.5952 42.5787 18.5793C42.7762 18.5704 42.9887 18.6457 43.1212 18.7721C43.1966 18.844 43.2348 18.92 43.2348 18.998C43.2348 20.4726 43.2439 27.3424 43.2498 29.4928C43.2501 29.5345 43.2497 29.5761 43.249 29.6171Z" fill="#FFB201" stroke="#FFB201" stroke-width="0.5"/>
<path id="Vector_8" d="M37.408 32.586C37.3056 32.3364 37.0437 32.1784 36.775 32.2027C36.5171 32.2261 36.2942 32.4128 36.2277 32.6633C36.1615 32.9123 36.2578 33.1825 36.4672 33.3331C36.6787 33.4852 36.9724 33.4874 37.1864 33.3388C37.4252 33.1731 37.5199 32.8547 37.408 32.586Z" fill="#FFB201" stroke="#FFB201" stroke-width="0.5"/>
</g>
</g>
<defs>
<clipPath id="clip0_1_291">
<rect width="56" height="56" fill="white" transform="translate(0.5 0.46875)"/>
</clipPath>
</defs>
</svg>
