<svg width="57" height="57" viewBox="0 0 57 57" fill="none" xmlns="http://www.w3.org/2000/svg">
<g id="6319f3bef634e9299a4f8277_Appointment%20Find%20Clinic.svg" clip-path="url(#clip0_1_393)">
<path id="Vector" opacity="0.3" d="M28.4865 56.4688C43.943 56.4688 56.473 43.9327 56.473 28.4688C56.473 13.0048 43.943 0.46875 28.4865 0.46875C13.03 0.46875 0.5 13.0048 0.5 28.4688C0.5 43.9327 13.03 56.4688 28.4865 56.4688Z" fill="#FFB201"/>
<path id="Vector_2" d="M25.821 35.1354C30.9732 35.1354 35.1498 30.9567 35.1498 25.8021C35.1498 20.6474 30.9732 16.4688 25.821 16.4688C20.6688 16.4688 16.4922 20.6474 16.4922 25.8021C16.4922 30.9567 20.6688 35.1354 25.821 35.1354Z" fill="white"/>
<path id="Vector_3" d="M25.8208 35.802C31.341 35.802 35.8159 31.3249 35.8159 25.802C35.8159 20.2792 31.341 15.802 25.8208 15.802C20.3006 15.802 15.8256 20.2792 15.8256 25.802C15.8256 31.3249 20.3006 35.802 25.8208 35.802Z" stroke="#FFB201" stroke-width="1.8"/>
<path id="Vector_4" d="M40.4807 40.4689L33.1509 33.1355" stroke="#FFB201" stroke-width="1.8" stroke-linecap="round" stroke-linejoin="round"/>
</g>
<defs>
<clipPath id="clip0_1_393">
<rect width="56" height="56" fill="white" transform="translate(0.5 0.46875)"/>
</clipPath>
</defs>
</svg>
