<svg width="57" height="57" viewBox="0 0 57 57" fill="none" xmlns="http://www.w3.org/2000/svg">
<g id="6319e794a486e874b916cb32_Service%20Primary%20Care%20Icon.svg" clip-path="url(#clip0_1_242)">
<path id="Vector" opacity="0.3" d="M28.5 56.4688C43.964 56.4688 56.5 43.9327 56.5 28.4688C56.5 13.0048 43.964 0.46875 28.5 0.46875C13.036 0.46875 0.5 13.0048 0.5 28.4688C0.5 43.9327 13.036 56.4688 28.5 56.4688Z" fill="#1EBCB4"/>
<path id="Vector_2" d="M28.5003 15.1357C21.1429 15.1357 15.167 21.1116 15.167 28.469C15.167 35.8265 21.1429 41.8024 28.5003 41.8024C35.8578 41.8024 41.8337 35.8265 41.8337 28.469C41.8337 21.1116 35.8578 15.1357 28.5003 15.1357ZM28.5003 40.6457C21.7855 40.6457 16.3236 35.1839 16.3236 28.469C16.3236 21.7542 21.7855 16.2923 28.5003 16.2923C35.2152 16.2923 40.677 21.7542 40.677 28.469C40.677 35.1839 35.2152 40.6457 28.5003 40.6457Z" fill="#1EBCB4"/>
<path id="Vector_3" fill-rule="evenodd" clip-rule="evenodd" d="M14.8335 28.4689C14.8335 20.9273 20.9586 14.8022 28.5002 14.8022C36.0417 14.8022 42.1668 20.9273 42.1668 28.4689C42.1668 36.0104 36.0417 42.1355 28.5002 42.1355C20.9586 42.1355 14.8335 36.0104 14.8335 28.4689ZM28.5002 15.4689C21.3268 15.4689 15.5002 21.2955 15.5002 28.4689C15.5002 35.6422 21.3268 41.4689 28.5002 41.4689C35.6735 41.4689 41.5002 35.6422 41.5002 28.4689C41.5002 21.2955 35.6735 15.4689 28.5002 15.4689ZM28.5002 16.6255C21.9694 16.6255 16.6568 21.9381 16.6568 28.4689C16.6568 34.9996 21.9694 40.3122 28.5002 40.3122C35.0309 40.3122 40.3435 34.9996 40.3435 28.4689C40.3435 21.9381 35.0309 16.6255 28.5002 16.6255ZM15.9901 28.4689C15.9901 21.5699 21.6012 15.9588 28.5002 15.9588C35.3991 15.9588 41.0102 21.5699 41.0102 28.4689C41.0102 35.3678 35.3991 40.9789 28.5002 40.9789C21.6012 40.9789 15.9901 35.3678 15.9901 28.4689Z" fill="#1EBCB4"/>
<path id="Vector_4" d="M31.1668 21.8022H25.8335V35.1355H31.1668V21.8022Z" fill="white"/>
<path id="Vector_5" d="M21.8335 25.8024V31.1357H35.1668V25.8024H21.8335Z" fill="white"/>
<path id="Vector_6" d="M35.4403 25.5777H31.3921V21.5295C31.3921 21.2082 31.135 20.9512 30.8137 20.9512H26.1872C25.866 20.9512 25.6089 21.2082 25.6089 21.5295V25.5777H21.5607C21.2394 25.5777 20.9824 25.8348 20.9824 26.156V30.7826C20.9824 31.1038 21.2394 31.3609 21.5607 31.3609H25.6089V35.4091C25.6089 35.7303 25.866 35.9874 26.1872 35.9874H30.8137C31.135 35.9874 31.3921 35.7303 31.3921 35.4091V31.3609H35.4403C35.7615 31.3609 36.0186 31.1038 36.0186 30.7826V26.156C35.9864 25.8348 35.7294 25.5777 35.4403 25.5777ZM34.8941 30.2042H34.8619H30.8137C30.4925 30.2042 30.2354 30.4613 30.2354 30.7826V34.8307H26.7656V30.7826C26.7656 30.4613 26.5085 30.2042 26.1872 30.2042H22.139V26.7344H26.1872C26.5085 26.7344 26.7656 26.4773 26.7656 26.156V22.1078H30.2676V26.156C30.2676 26.4773 30.5246 26.7344 30.8459 26.7344H34.8941V30.2042Z" fill="#1EBCB4"/>
<path id="Vector_7" fill-rule="evenodd" clip-rule="evenodd" d="M25.2754 21.5294C25.2754 21.024 25.6817 20.6177 26.1871 20.6177H30.8136C31.319 20.6177 31.7252 21.024 31.7252 21.5294V25.2442H35.4401C35.9295 25.2442 36.304 25.6616 36.3501 26.1227L36.3517 26.1393V30.7824C36.3517 31.2878 35.9455 31.694 35.4401 31.694H31.7252V35.4089C31.7252 35.9143 31.319 36.3205 30.8136 36.3205H26.1871C25.6817 36.3205 25.2754 35.9143 25.2754 35.4089V31.694H21.5606C21.0552 31.694 20.6489 31.2878 20.6489 30.7824V26.1559C20.6489 25.6505 21.0552 25.2442 21.5606 25.2442H25.2754V21.5294ZM26.1871 21.2844C26.0499 21.2844 25.9421 21.3922 25.9421 21.5294V25.9109H21.5606C21.4234 25.9109 21.3156 26.0187 21.3156 26.1559V30.7824C21.3156 30.9196 21.4234 31.0274 21.5606 31.0274H25.9421V35.4089C25.9421 35.5461 26.0499 35.6539 26.1871 35.6539H30.8136C30.9508 35.6539 31.0586 35.5461 31.0586 35.4089V31.0274H35.4401C35.5773 31.0274 35.6851 30.9196 35.6851 30.7824V26.1751C35.6614 26.0027 35.5267 25.9109 35.4401 25.9109H31.0586V21.5294C31.0586 21.3922 30.9508 21.2844 30.8136 21.2844H26.1871ZM26.4321 21.7744H30.6007V26.1559C30.6007 26.2931 30.7085 26.4009 30.8457 26.4009H35.2272V30.5374H30.8136C30.6764 30.5374 30.5686 30.6452 30.5686 30.7824V35.1639H26.4321V30.7824C26.4321 30.6452 26.3243 30.5374 26.1871 30.5374H21.8056V26.4009H26.1871C26.3243 26.4009 26.4321 26.2931 26.4321 26.1559V21.7744ZM27.0987 22.441V26.1559C27.0987 26.6613 26.6925 27.0675 26.1871 27.0675H22.4722V29.8707H26.1871C26.6925 29.8707 27.0987 30.277 27.0987 30.7824V34.4972H29.9019V30.7824C29.9019 30.277 30.3082 29.8707 30.8136 29.8707H34.5606V27.0675H30.8457C30.3403 27.0675 29.9341 26.6613 29.9341 26.1559V22.441H27.0987Z" fill="#1EBCB4"/>
</g>
<defs>
<clipPath id="clip0_1_242">
<rect width="56" height="56" fill="white" transform="translate(0.5 0.46875)"/>
</clipPath>
</defs>
</svg>
