<svg width="57" height="57" viewBox="0 0 57 57" fill="none" xmlns="http://www.w3.org/2000/svg">
<g id="6319e794bd8af52f80306cc4_Service%20Neurology%20Icon.svg" clip-path="url(#clip0_1_310)">
<path id="Vector" opacity="0.3" d="M28.5 56.4688C43.964 56.4688 56.5 43.9327 56.5 28.4688C56.5 13.0048 43.964 0.46875 28.5 0.46875C13.036 0.46875 0.5 13.0048 0.5 28.4688C0.5 43.9327 13.036 56.4688 28.5 56.4688Z" fill="#1EBCB4"/>
<g id="Group">
<path id="Vector_2" d="M28.5002 20.4686C29.973 20.4686 31.1669 19.2747 31.1669 17.8019C31.1669 16.3292 29.973 15.1353 28.5002 15.1353C27.0274 15.1353 25.8335 16.3292 25.8335 17.8019C25.8335 19.2747 27.0274 20.4686 28.5002 20.4686Z" fill="white"/>
<path id="Vector_3" d="M15.8335 23.1353C16.9381 23.1353 17.8335 22.2398 17.8335 21.1353C17.8335 20.0307 16.9381 19.1353 15.8335 19.1353C14.7289 19.1353 13.8335 20.0307 13.8335 21.1353C13.8335 22.2398 14.7289 23.1353 15.8335 23.1353Z" fill="white"/>
<path id="Vector_4" d="M15.8335 39.1353C16.9381 39.1353 17.8335 38.2398 17.8335 37.1353C17.8335 36.0307 16.9381 35.1353 15.8335 35.1353C14.7289 35.1353 13.8335 36.0307 13.8335 37.1353C13.8335 38.2398 14.7289 39.1353 15.8335 39.1353Z" fill="white"/>
<path id="Vector_5" d="M29.8337 43.1351C31.3065 43.1351 32.5004 41.9412 32.5004 40.4684C32.5004 38.9957 31.3065 37.8018 29.8337 37.8018C28.3609 37.8018 27.167 38.9957 27.167 40.4684C27.167 41.9412 28.3609 43.1351 29.8337 43.1351Z" fill="white"/>
<path id="Vector_6" d="M40.5002 35.1351C41.973 35.1351 43.1669 33.9412 43.1669 32.4684C43.1669 30.9957 41.973 29.8018 40.5002 29.8018C39.0274 29.8018 37.8335 30.9957 37.8335 32.4684C37.8335 33.9412 39.0274 35.1351 40.5002 35.1351Z" fill="white"/>
<path id="Vector_7" d="M41.167 23.1353C42.2716 23.1353 43.167 22.2398 43.167 21.1353C43.167 20.0307 42.2716 19.1353 41.167 19.1353C40.0624 19.1353 39.167 20.0307 39.167 21.1353C39.167 22.2398 40.0624 23.1353 41.167 23.1353Z" fill="white"/>
<path id="Vector_8" d="M24.5 33.8018C26.7091 33.8018 28.5 32.0109 28.5 29.8018C28.5 27.5926 26.7091 25.8018 24.5 25.8018C22.2909 25.8018 20.5 27.5926 20.5 29.8018C20.5 32.0109 22.2909 33.8018 24.5 33.8018Z" fill="white"/>
<path id="Vector_9" d="M41.963 28.653V23.7592C43.0267 23.374 43.7889 22.354 43.7889 21.159C43.7889 19.8336 42.8512 18.7236 41.6045 18.4562L38.339 12.7383L36.7086 13.6694L39.6251 18.7761C39.1607 19.0498 38.783 19.455 38.5436 19.9405L31.4147 17.4839C31.0943 15.9847 29.7598 14.8568 28.1664 14.8568C26.5795 14.8568 25.2496 15.9757 24.9223 17.4659L18.5583 19.4719C17.992 18.8686 17.1883 18.4906 16.2975 18.4906C14.5871 18.4906 13.1955 19.8822 13.1955 21.5927C13.1955 23.3032 14.5871 24.6948 16.2975 24.6948C16.6856 24.6948 17.0569 24.6225 17.3996 24.4918L20.1947 27.829C19.8264 28.503 19.6168 29.2755 19.6168 30.0961C19.6168 30.6937 19.7289 31.2653 19.9315 31.7924L17.4634 34.197C16.9806 33.9242 16.4237 33.7677 15.8307 33.7677C13.9941 33.7677 12.5 35.2618 12.5 37.0983C12.5 38.6599 13.5805 39.9733 15.033 40.3318L15.7561 44.199L17.6016 43.8539L16.9264 40.2429C18.2261 39.7887 19.1613 38.551 19.1613 37.0983C19.1613 36.5361 19.0207 36.0064 18.7738 35.5415L20.9662 33.4055C21.8077 34.2685 22.974 34.8123 24.2657 34.8379L26.8638 38.5958C26.4183 39.1612 26.1514 39.8737 26.1514 40.6477C26.1514 42.4794 27.6416 43.9697 29.4733 43.9697C31.3051 43.9697 32.7953 42.4794 32.7953 40.6477C32.7953 40.544 32.7899 40.4417 32.7806 40.3405L40.0416 35.3322C40.3534 35.4242 40.683 35.4746 41.0243 35.4746C42.9408 35.4746 44.5 33.9154 44.5 31.9989C44.5 30.4077 43.4248 29.0637 41.963 28.653ZM15.8307 38.5515C15.0294 38.5515 14.3775 37.8996 14.3775 37.0984C14.3775 36.2971 15.0294 35.6452 15.8307 35.6452C16.632 35.6452 17.2838 36.2971 17.2838 37.0984C17.2838 37.8997 16.6319 38.5515 15.8307 38.5515ZM37.8461 30.5943L29.0328 29.2765C28.7226 27.5036 27.4258 26.0663 25.7302 25.5542L27.6069 21.4526C27.7889 21.4836 27.9757 21.5006 28.1664 21.5006C29.5621 21.5006 30.7587 20.635 31.2497 19.4128L38.3498 21.8595C38.5809 22.741 39.2372 23.452 40.0855 23.7592V28.653C39.0829 28.9347 38.2627 29.6555 37.8461 30.5943ZM41.0243 22.0462C40.5352 22.0462 40.1372 21.6482 40.1372 21.1591C40.1372 20.6699 40.5352 20.272 41.0243 20.272C41.5135 20.272 41.9114 20.6699 41.9114 21.1591C41.9114 21.6482 41.5135 22.0462 41.0243 22.0462ZM28.1664 16.7342C28.9629 16.7342 29.611 17.3822 29.611 18.1787C29.611 18.9753 28.963 19.6232 28.1664 19.6232C27.3699 19.6232 26.7219 18.9753 26.7219 18.1787C26.7219 17.3822 27.37 16.7342 28.1664 16.7342ZM25.0729 19.3869C25.2592 19.8622 25.5514 20.2847 25.9212 20.6244L23.7389 25.394C22.8725 25.5081 22.0794 25.8565 21.4249 26.3738L18.8705 23.3239C19.2045 22.8291 19.3997 22.2333 19.3997 21.5927C19.3997 21.4541 19.3896 21.3178 19.3719 21.1839L25.0729 19.3869ZM15.0729 21.5927C15.0729 20.9174 15.6223 20.3681 16.2975 20.3681C16.9728 20.3681 17.5222 20.9174 17.5222 21.5927C17.5222 22.268 16.9728 22.8173 16.2975 22.8173C15.6223 22.8173 15.0729 22.268 15.0729 21.5927ZM21.4942 30.0961C21.4942 28.5154 22.7802 27.2294 24.361 27.2294C25.9418 27.2294 27.2277 28.5154 27.2277 30.0961C27.2277 31.6769 25.9417 32.9628 24.361 32.9628C22.7803 32.9628 21.4942 31.6768 21.4942 30.0961ZM29.4733 42.0921C28.6769 42.0921 28.0289 41.4441 28.0289 40.6476C28.0289 39.8511 28.6769 39.2031 29.4733 39.2031C30.2698 39.2031 30.9179 39.8511 30.9179 40.6476C30.9179 41.4441 30.2698 42.0921 29.4733 42.0921ZM29.4733 37.3257C29.0953 37.3257 28.7322 37.39 28.3934 37.5069L26.2712 34.4373C27.6212 33.8409 28.6419 32.6335 28.9817 31.1672L37.5792 32.4527C37.6664 33.1181 37.9417 33.7251 38.3511 34.2175L32.0549 38.5602C31.4454 37.8078 30.5148 37.3257 29.4733 37.3257ZM41.0243 33.5971C40.143 33.5971 39.4261 32.8801 39.4261 31.9989C39.4261 31.1176 40.1431 30.4006 41.0243 30.4006C41.9056 30.4006 42.6226 31.1176 42.6226 31.9989C42.6225 32.8802 41.9056 33.5971 41.0243 33.5971Z" fill="#1EBCB4"/>
</g>
</g>
<defs>
<clipPath id="clip0_1_310">
<rect width="56" height="56" fill="white" transform="translate(0.5 0.46875)"/>
</clipPath>
</defs>
</svg>
