<svg width="57" height="57" viewBox="0 0 57 57" fill="none" xmlns="http://www.w3.org/2000/svg">
<g id="6319e794c123ca35817c909b_Service%20Sport%20Medicine%20Icon.svg" clip-path="url(#clip0_1_277)">
<path id="Vector" opacity="0.3" d="M28.5 56.4688C43.964 56.4688 56.5 43.9327 56.5 28.4688C56.5 13.0048 43.964 0.46875 28.5 0.46875C13.036 0.46875 0.5 13.0048 0.5 28.4688C0.5 43.9327 13.036 56.4688 28.5 56.4688Z" fill="#A27FFF"/>
<path id="Vector_2" d="M17.8335 25.1355L18.5002 20.4688H38.5002L39.1668 25.1355L43.1668 24.4688V36.4688H39.1668V40.4688H17.8335V36.4688H13.8335V25.1355H17.8335Z" fill="white"/>
<path id="Vector_3" d="M33.4338 19.5068V16.0938C33.4338 15.5415 32.986 15.0938 32.4338 15.0938H24.5662C24.0139 15.0938 23.5662 15.5415 23.5662 16.0938V19.5068H13.5C12.9477 19.5068 12.5 19.9545 12.5 20.5068V40.8438C12.5 41.396 12.9477 41.8438 13.5 41.8438H43.5C44.0523 41.8438 44.5 41.396 44.5 40.8438V20.5068C44.5 19.9545 44.0523 19.5068 43.5 19.5068H33.4338ZM25.4412 16.9688H31.5588V19.5068H25.4412V16.9688ZM14.375 21.3818H17.1875V23.9688H14.375V21.3818ZM17.1875 39.9688H14.375V37.3817H17.1875V39.9688ZM42.625 39.9688H39.8125V37.3817H42.625V39.9688ZM42.625 35.5067H37.9375V39.9688H19.0625V35.5067H14.375V25.8438H19.0625V21.3818H37.9375V25.8438H42.625V35.5067ZM42.625 23.9688H39.8125V21.3818H42.625V23.9688Z" fill="#A27FFF"/>
<path id="Vector_4" d="M31.4532 27.7546V25.3154H25.5472V27.7546H23.1079V33.6607H25.5472V36.0999H31.4532V33.6607H33.8925V27.7546H31.4532ZM32.0175 31.7857H29.5782V34.2249H27.4222V31.7857H24.9829V29.6296H27.4222V27.1904H29.5782V29.6296H32.0175V31.7857Z" fill="#A27FFF"/>
</g>
<defs>
<clipPath id="clip0_1_277">
<rect width="56" height="56" fill="white" transform="translate(0.5 0.46875)"/>
</clipPath>
</defs>
</svg>
