<svg width="57" height="57" viewBox="0 0 57 57" fill="none" xmlns="http://www.w3.org/2000/svg">
<g id="631a06951c0c1c3d0cbb6886_Different%20Section%20Item%201.svg" clip-path="url(#clip0_1_510)">
<path id="Vector" opacity="0.3" d="M56.5 28.6406C56.5 13.1767 43.964 0.640625 28.5 0.640625C13.036 0.640625 0.5 13.1767 0.5 28.6406C0.5 44.1046 13.036 56.6406 28.5 56.6406C43.964 56.6406 56.5 44.1046 56.5 28.6406Z" fill="#4640DD"/>
<path id="Vector_2" d="M23.8335 19.3074H34.3335L32.0002 23.3908L34.3335 27.4741H23.8335V19.3074Z" fill="white"/>
<path id="Vector_3" d="M37.4217 35.5033V33.0719C37.4217 32.5196 36.974 32.0719 36.4217 32.0719H24.3825V27.9542H34.0904C34.8891 27.9542 35.3655 27.0641 34.9225 26.3995L32.7563 23.1503L34.9224 19.9011C35.3655 19.2365 34.8891 18.3464 34.0904 18.3464H24.3825V17.6601C24.3825 17.2811 24.0753 16.9739 23.6962 16.9739C23.3172 16.9739 23.01 17.2811 23.01 17.6601V18.3464V27.9542V32.0719H20.5786C20.0263 32.0719 19.5786 32.5196 19.5786 33.0719V35.5033H17.8335C17.2812 35.5033 16.8335 35.951 16.8335 36.5033V39.3072C16.8335 39.8595 17.2812 40.3072 17.8335 40.3072H39.1668C39.7191 40.3072 40.1668 39.8595 40.1668 39.3072V36.5033C40.1668 35.951 39.7191 35.5033 39.1668 35.5033H37.4217ZM33.3944 19.719L31.1068 23.1503L33.3944 26.5817H24.3825V19.719H33.3944ZM20.9511 33.4444H36.0492V35.5033H20.9511V33.4444ZM38.7943 38.9346H18.206V36.8758H19.5786H37.4217H38.7943V38.9346Z" fill="#4640DD"/>
</g>
<defs>
<clipPath id="clip0_1_510">
<rect width="56" height="56" fill="white" transform="translate(0.5 0.640625)"/>
</clipPath>
</defs>
</svg>
