<svg width="57" height="57" viewBox="0 0 57 57" fill="none" xmlns="http://www.w3.org/2000/svg">
<g id="631a0695a87790af9560a4e8_Different%20Section%20Item%203.svg" clip-path="url(#clip0_1_532)">
<path id="Vector" opacity="0.3" d="M56.5 28.6094C56.5 13.1454 43.964 0.609375 28.5 0.609375C13.036 0.609375 0.5 13.1454 0.5 28.6094C0.5 44.0733 13.036 56.6094 28.5 56.6094C43.964 56.6094 56.5 44.0733 56.5 28.6094Z" fill="#FFB201"/>
<path id="Vector_2" d="M31.4168 36.776C35.605 36.776 39.0002 33.3809 39.0002 29.1927C39.0002 25.0045 35.605 21.6094 31.4168 21.6094C27.2287 21.6094 23.8335 25.0045 23.8335 29.1927C23.8335 33.3809 27.2287 36.776 31.4168 36.776Z" fill="white"/>
<path id="Vector_3" d="M31.5913 28.0601L31.9449 28.4137L32.2984 28.0601L34.0127 26.3458C34.0128 26.3458 34.0128 26.3458 34.0128 26.3458C34.0845 26.2741 34.2008 26.2741 34.2724 26.3458C34.3441 26.4175 34.3441 26.5337 34.2724 26.6053V26.6054L32.0747 28.8031C32.003 28.8748 31.8867 28.8748 31.815 28.8031L30.234 27.222C30.1622 27.1503 30.1623 27.0341 30.2339 26.9624C30.3057 26.8907 30.4219 26.8908 30.4936 26.9624L31.5913 28.0601Z" fill="#FFB201" stroke="#FFB201"/>
<path id="Vector_4" d="M27.1628 22.4707L27.3327 22.4768L27.4711 22.3781C32.5346 18.7678 39.6668 22.3776 39.6668 28.6734C39.6668 32.9091 36.2378 36.3955 31.9448 36.3956C30.3219 36.3956 28.7687 35.8946 27.4711 34.9689L27.3323 34.8699L27.162 34.8763C27.165 34.8762 27.1242 34.8762 27.0401 34.8763C26.9724 34.8764 26.8766 34.8765 26.7532 34.8766L25.6602 34.877C24.7588 34.8772 23.561 34.8773 22.362 34.8774C20.2068 34.8774 18.0482 34.8773 17.6007 34.8773H17.5171C17.4157 34.8773 17.3335 34.7951 17.3335 34.6937C17.3335 34.5923 17.4157 34.5101 17.5171 34.5101H25.69H26.7759L26.07 33.685C25.0272 32.4663 24.3822 30.9398 24.2493 29.3163L24.2117 28.8571H23.751H19.7843C19.683 28.8571 19.6007 28.7749 19.6007 28.6735C19.6007 28.5721 19.683 28.4899 19.7843 28.4899H23.751H24.2117L24.2493 28.0307C24.3825 26.4047 25.0293 24.8789 26.07 23.6619L26.7755 22.8369H25.69H22.3185C22.2171 22.8369 22.1349 22.7547 22.1349 22.6533C22.1349 22.5519 22.2171 22.4697 22.3185 22.4697H27.1429C27.1474 22.47 27.1545 22.4704 27.1628 22.4707ZM24.59 28.6734C24.59 32.7725 27.9138 36.0283 31.9448 36.0283C36.0237 36.0283 39.2996 32.719 39.2996 28.6734C39.2996 22.2024 31.5364 18.9167 26.882 23.3388C25.405 24.7414 24.59 26.6382 24.59 28.6734Z" fill="#FFB201" stroke="#FFB201"/>
<path id="Vector_5" d="M32.2046 24.2149C32.2046 24.3584 32.0883 24.4747 31.9448 24.4747C31.8014 24.4747 31.6851 24.3584 31.6851 24.2149C31.6851 24.0714 31.8014 23.9551 31.9448 23.9551C32.0883 23.9551 32.2046 24.0714 32.2046 24.2149Z" fill="#FFB201" stroke="#FFB201"/>
<path id="Vector_6" d="M31.9448 33.8916C32.3644 33.8916 32.7046 33.5514 32.7046 33.1318C32.7046 32.7122 32.3644 32.3721 31.9448 32.3721C31.5252 32.3721 31.1851 32.7122 31.1851 33.1318C31.1851 33.5514 31.5252 33.8916 31.9448 33.8916Z" fill="#FFB201"/>
<path id="Vector_7" d="M36.3779 27.8882C35.9583 27.8882 35.6182 28.2284 35.6182 28.648C35.6182 29.0676 35.9583 29.4077 36.3779 29.4077C36.7975 29.4077 37.1377 29.0676 37.1377 28.648C37.1377 28.2284 36.7975 27.8882 36.3779 27.8882Z" fill="#FFB201"/>
<path id="Vector_8" d="M27.5794 29.3988C27.9936 29.3317 28.2749 28.9415 28.2077 28.5274C28.1406 28.1132 27.7504 27.8319 27.3363 27.8991C26.9222 27.9662 26.6408 28.3564 26.708 28.7705C26.7751 29.1847 27.1653 29.466 27.5794 29.3988Z" fill="#FFB201"/>
</g>
<defs>
<clipPath id="clip0_1_532">
<rect width="56" height="56" fill="white" transform="translate(0.5 0.609375)"/>
</clipPath>
</defs>
</svg>
