<svg width="57" height="57" viewBox="0 0 57 57" fill="none" xmlns="http://www.w3.org/2000/svg">
<g id="631a069557f95abab5aee498_Different%20Section%20Item%204.svg" clip-path="url(#clip0_1_546)">
<path id="Vector" opacity="0.3" d="M56.5 28.5938C56.5 13.1298 43.964 0.59375 28.5 0.59375C13.036 0.59375 0.5 13.1298 0.5 28.5938C0.5 44.0577 13.036 56.5938 28.5 56.5938C43.964 56.5938 56.5 44.0577 56.5 28.5938Z" fill="#4EB2F9"/>
<g id="Group">
<path id="Vector_2" d="M25.5835 24.5103H31.4168V26.8437L28.5002 28.0103L25.5835 26.8437V24.5103Z" fill="white"/>
<path id="Vector_3" d="M25.5833 18.677L28.5 18.0938L30.8333 18.677L32 21.5938H25L25.5833 18.677Z" fill="white"/>
<path id="Vector_4" d="M25 32.0938H32V35.5938L28.5 39.0938L25 35.5938V32.0938Z" fill="white"/>
<path id="Vector_5" d="M30.2231 23.537C30.4497 23.537 30.6333 23.3534 30.6333 23.1268V23.0043C30.6333 22.7778 30.4497 22.5942 30.2231 22.5942C29.9966 22.5942 29.813 22.7778 29.813 23.0043V23.1268C29.813 23.3534 29.9966 23.537 30.2231 23.537Z" fill="#4EB2F9" stroke="#4EB2F9" stroke-width="0.3"/>
<path id="Vector_6" d="M40.8061 27.592C41.1696 27.0556 41.3823 26.4089 41.3823 25.7134C41.3823 23.8463 39.8501 22.3305 37.9779 22.359C36.2106 22.3858 34.7506 23.8081 34.6787 25.5741C34.6484 26.3189 34.8624 27.0134 35.2469 27.5838C34.792 27.8468 34.3225 28.2495 33.9114 28.9671C33.0637 28.5804 32.0651 28.3701 31.2146 28.191C31.0118 28.1484 30.8161 28.1071 30.6332 28.0658V27.7199C31.5395 27.176 32.2066 26.3608 32.2066 25.5941C32.2066 25.504 32.1988 25.4226 32.1845 25.3487C32.2216 25.2643 32.2558 25.1799 32.2871 25.0956C33.1785 25.0031 33.8188 24.5011 33.8188 23.8571L33.8219 22.9487C33.8219 22.4908 33.4565 22.1322 32.9901 22.1322H32.5342L32.5353 21.1567C32.5369 20.0476 32.0955 19.1118 31.2589 18.4504C30.5366 17.8794 29.5664 17.5585 28.527 17.5469C28.524 17.5468 28.5209 17.5468 28.5179 17.5469C27.4785 17.5585 26.5083 17.8794 25.786 18.4504C24.9494 19.1118 24.508 20.0476 24.5096 21.1561V22.1322H24.0532C23.5868 22.1322 23.2214 22.4909 23.2214 22.9501L23.2245 23.8571C23.2265 24.5012 23.8667 25.0022 24.7561 25.0952C24.7875 25.1798 24.8218 25.2646 24.8591 25.3493C24.8447 25.4232 24.8367 25.5041 24.8367 25.5941C24.8367 26.3607 25.5038 27.1756 26.4102 27.7195V28.0659C26.2272 28.1072 26.0316 28.1484 25.8288 28.1911C24.9668 28.3726 23.9526 28.5862 23.0976 28.983C22.6837 28.2556 22.2106 27.8497 21.7527 27.5845C22.1375 27.0138 22.3518 26.3189 22.3213 25.5736C22.2491 23.8071 20.7881 22.3849 19.0203 22.359C17.148 22.3314 15.6162 23.8469 15.6162 25.7134C15.6162 26.4091 15.8291 27.056 16.1931 27.5925C15.1502 28.2354 14.5 29.375 14.5 30.6212V32.4649C14.5 33.1513 15.0564 33.7077 15.7428 33.7077H19.4319C19.6565 33.7077 19.8524 33.5346 19.8591 33.3103C19.8661 33.078 19.6798 32.8875 19.4491 32.8875H15.7426C15.5094 32.8875 15.3203 32.6984 15.3203 32.4652V30.6212C15.3203 29.6153 15.8717 28.7 16.7449 28.2206C16.9089 28.3664 17.0872 28.496 17.2775 28.6079L18.6583 31.5255C18.7262 31.6689 18.8706 31.7602 19.0291 31.7602H19.0307C19.1895 31.7602 19.3338 31.668 19.4005 31.524L20.7862 28.5317C20.9323 28.4372 21.0708 28.3319 21.2001 28.2165C21.5894 28.4133 22.0058 28.7201 22.3855 29.3896C21.8038 29.8018 21.3808 30.3577 21.2727 31.1332L20.6826 34.8434C20.6792 34.8646 20.6775 34.8861 20.6775 34.9076V36.7696C20.6775 37.3662 21.162 37.8513 21.7576 37.8513H25.0066C25.4113 37.8513 25.7831 37.707 26.073 37.4664L27.998 39.3744C28.133 39.5095 28.3123 39.6351 28.5102 39.6405C28.7103 39.646 28.9134 39.5153 29.0469 39.3744L30.9358 37.5014C31.2191 37.7206 31.574 37.8513 31.9595 37.8513H35.2069C35.803 37.8513 36.2886 37.3662 36.2886 36.7696V34.9076C36.2886 34.904 36.2866 34.8663 36.2845 34.8512L35.7714 31.1376C35.6624 30.3459 35.2256 29.7828 34.6269 29.3677C35.0025 28.7132 35.4141 28.4104 35.7992 28.2159C35.9288 28.3316 36.0675 28.437 36.2138 28.5317L37.5996 31.524C37.6663 31.668 37.8106 31.7602 37.9693 31.7602H37.971C38.1295 31.7602 38.2739 31.6689 38.3417 31.5255L39.7229 28.6073C39.9128 28.4956 40.0908 28.3659 40.2545 28.2203C41.1281 28.6995 41.6797 29.6151 41.6797 30.6212V32.4649C41.6797 32.6979 41.4895 32.8875 41.2559 32.8875H37.5665C37.3419 32.8875 37.1461 33.0605 37.1394 33.285C37.1324 33.5172 37.3186 33.7077 37.5494 33.7077H41.2559C41.9419 33.7077 42.5 33.1502 42.5 32.4649V30.6212C42.5 29.3745 41.8494 28.2348 40.8061 27.592ZM32.5338 23.7875V22.9525H32.9902C32.9952 22.9525 32.999 22.9533 33.0016 22.9541L32.9985 23.8557C32.9985 23.9729 32.8135 24.1302 32.5059 24.22C32.5243 24.0749 32.5338 23.9306 32.5338 23.7875ZM24.0448 23.8543L24.0418 22.9541C24.0443 22.9533 24.0482 22.9525 24.0532 22.9525H24.5096V23.7875C24.5096 23.9304 24.519 24.0745 24.5373 24.2194C24.2303 24.1293 24.0452 23.9717 24.0448 23.8543ZM19.025 30.3827L18.3776 29.0148C18.5701 29.0493 18.7679 29.0683 18.9701 29.0683C19.2093 29.0683 19.4425 29.0426 19.6678 28.9948L19.025 30.3827ZM21.4934 25.9454C21.3853 27.1553 20.4113 28.1298 19.2014 28.2376C17.6227 28.3784 16.3057 27.0607 16.4469 25.4814C16.555 24.2715 17.529 23.297 18.7389 23.1891C20.3175 23.0484 21.6346 24.3661 21.4934 25.9454ZM25.33 21.1554C25.3272 19.266 26.982 18.3859 28.5225 18.3671C30.0629 18.3859 31.7178 19.266 31.715 21.1556L31.7145 21.5838C30.9352 21.0624 29.7902 20.7521 28.5298 20.7521C28.5248 20.7521 28.52 20.7521 28.5151 20.7521C27.2545 20.7521 26.1093 21.0622 25.3299 21.5832V21.1554H25.33ZM25.4731 24.657C25.4651 24.6318 25.4577 24.6064 25.45 24.5812C25.3708 24.3106 25.33 24.0452 25.33 23.7875V22.6737C25.8439 22.0097 27.1015 21.571 28.5221 21.5724C28.5246 21.5722 28.5272 21.5724 28.5298 21.5724C29.9451 21.5724 31.2003 22.0108 31.7134 22.6737V23.7875C31.7134 24.0691 31.6649 24.3601 31.5704 24.6568C31.4428 24.5997 31.3108 24.5528 31.18 24.5037C30.0495 24.0724 29.28 23.8953 28.5242 23.8921C28.523 23.8921 28.5219 23.8921 28.5208 23.8921C27.7639 23.8953 26.994 24.0724 25.8644 24.5033C25.7333 24.5525 25.601 24.5997 25.4731 24.657ZM25.6571 25.594C25.6571 25.5931 25.6571 25.5923 25.6571 25.5914C25.6573 25.5186 25.6997 25.4526 25.7649 25.4203C25.9103 25.348 26.1558 25.2701 26.1558 25.2701C27.1864 24.877 27.8722 24.7155 28.5225 24.7125C29.1718 24.7155 29.8572 24.8771 30.8887 25.2705C31.012 25.3169 31.1388 25.3595 31.2537 25.4247C31.3201 25.4625 31.3864 25.5108 31.3864 25.594C31.3864 26.2986 29.9717 27.5217 28.5225 27.5331C27.0725 27.5217 25.6571 26.2986 25.6571 25.594ZM29.8129 28.1101V28.3899C29.8129 28.754 29.6911 29.0394 29.451 29.2382C29.2303 29.4208 28.9204 29.5214 28.5784 29.5214C28.0366 29.5214 27.2305 29.2201 27.2305 28.3899V28.1098C27.65 28.2613 28.09 28.3505 28.5197 28.3534H28.5225C28.5225 28.3534 28.5243 28.3534 28.5253 28.3534C28.9545 28.3505 29.3938 28.2614 29.8129 28.1101ZM25.9978 28.9937C26.1618 28.9592 26.3213 28.9256 26.4746 28.8919C26.7255 29.837 27.676 30.3417 28.5785 30.3417C29.111 30.3417 29.6066 30.1743 29.974 29.8701C30.2807 29.6163 30.4839 29.2839 30.5761 28.8934C30.7272 28.9266 30.8842 28.9597 31.0456 28.9937C31.1623 29.0182 31.2811 29.0433 31.401 29.069L29.3029 31.8652C29.0181 32.001 28.7524 32.1777 28.5219 32.3847C28.2911 32.1777 28.0254 32.001 27.7406 31.8652L25.6425 29.0691C25.7623 29.0433 25.8811 29.0183 25.9978 28.9937ZM22.0834 31.2579C22.0838 31.255 22.0843 31.2523 22.0847 31.2494C22.239 30.1286 23.4645 29.6097 24.7694 29.2723L26.494 31.5706C25.9174 31.5722 25.3473 31.7745 24.8836 32.2545C24.2919 32.8681 24.0266 33.6938 24.0879 34.4972H21.5683L22.0834 31.2579ZM25.4851 36.8838C25.3484 36.9768 25.1838 37.0308 25.0066 37.0308H21.7576C21.6143 37.0308 21.4978 36.9139 21.4978 36.7695V35.3176H25.0066C25.0673 35.3176 25.1263 35.324 25.1832 35.336C25.5458 35.4126 25.8247 35.7201 25.858 36.0979C25.8602 36.1231 25.8613 36.1483 25.8613 36.174C25.8613 36.4692 25.712 36.7296 25.4851 36.8838ZM30.2829 36.1552C30.2802 36.4027 30.3313 36.6389 30.4255 36.8515L28.5224 38.7393L26.5619 36.7962C26.639 36.6038 26.6816 36.3937 26.6816 36.174C26.6816 35.2491 25.9302 34.4972 25.0066 34.4972H24.9087C24.8452 33.9011 25.0339 33.2809 25.4736 32.8243C26.173 32.1002 27.2865 32.3748 27.9805 33.0015C28.0275 33.0431 28.0647 33.0792 28.0959 33.1082C28.2102 33.2165 28.3277 33.328 28.5224 33.328C28.716 33.328 28.8325 33.2169 28.9457 33.1097C28.9769 33.0802 29.0152 33.0442 29.0638 33.0004C29.7573 32.3748 30.8707 32.1003 31.5696 32.8238C32.0098 33.2804 32.1985 33.9006 32.1351 34.4972H31.9941C31.0696 34.4972 30.293 35.2308 30.2829 36.1552ZM35.4683 36.7695C35.4683 36.9133 35.3506 37.0308 35.2069 37.0308H31.9595C31.802 37.0308 31.6549 36.9882 31.528 36.9138C31.2754 36.7661 31.1053 36.4922 31.1031 36.1794V36.174C31.1031 35.732 31.4384 35.3678 31.8682 35.3224C31.8983 35.3191 31.9289 35.3176 31.9595 35.3176H35.4683V36.7695ZM34.9588 31.2496L35.4075 34.4972H32.9559C33.0166 33.6938 32.7514 32.8682 32.1597 32.2546C31.6961 31.7744 31.126 31.5722 30.5495 31.5706L32.274 29.2724C33.5789 29.6097 34.8044 30.1286 34.9588 31.2496ZM37.975 30.3827L37.3323 28.9948C37.5574 29.0426 37.7907 29.0683 38.0299 29.0683C38.2322 29.0683 38.43 29.0492 38.6225 29.0147L37.975 30.3827ZM38.0298 28.2479C36.5688 28.2479 35.3926 27.0044 35.5034 25.5198C35.5959 24.2811 36.5948 23.2803 37.8334 23.1863C39.318 23.0737 40.562 24.2509 40.562 25.7134C40.562 27.111 39.4261 28.2479 38.0298 28.2479Z" fill="#4EB2F9" stroke="#4EB2F9" stroke-width="0.3"/>
<path id="Vector_7" d="M26.8203 23.537C27.0468 23.537 27.2305 23.3534 27.2305 23.1268V23.0043C27.2305 22.7778 27.0468 22.5942 26.8203 22.5942C26.5938 22.5942 26.4102 22.7778 26.4102 23.0043V23.1268C26.4102 23.3534 26.5938 23.537 26.8203 23.537Z" fill="#4EB2F9" stroke="#4EB2F9" stroke-width="0.3"/>
</g>
</g>
<defs>
<clipPath id="clip0_1_546">
<rect width="56" height="56" fill="white" transform="translate(0.5 0.59375)"/>
</clipPath>
</defs>
</svg>
