<svg width="25" height="25" viewBox="0 0 25 25" fill="none" xmlns="http://www.w3.org/2000/svg">
<g id="Frame">
<path id="Vector" d="M19.8653 13.4196L14.8853 18.4196C14.7253 18.5796 14.5253 18.6596 14.3253 18.6596C14.1253 18.6596 13.9253 18.5796 13.7653 18.4196C13.4453 18.0996 13.4453 17.5995 13.7653 17.2795L17.3853 13.6396H5.70527C5.26527 13.6396 4.90527 13.2796 4.90527 12.8396C4.90527 12.3996 5.26527 12.0396 5.70527 12.0396H17.3853L13.7653 8.39953C13.4453 8.07953 13.4453 7.57953 13.7653 7.25953C14.0853 6.93953 14.5853 6.93953 14.9053 7.25953L19.8853 12.2596C20.1853 12.5996 20.1853 13.1196 19.8653 13.4196Z" fill="#0F2F64"/>
</g>
</svg>
