<svg width="19" height="19" viewBox="0 0 19 19" fill="none" xmlns="http://www.w3.org/2000/svg">
<g id="ic:outline-alternate-email">
<path id="Vector" d="M9.21815 2.35453C5.13805 2.35453 1.82666 5.66592 1.82666 9.74603C1.82666 13.8261 5.13805 17.1375 9.21815 17.1375H12.9139V15.6592H9.21815C6.01025 15.6592 3.30496 12.9539 3.30496 9.74603C3.30496 6.53812 6.01025 3.83283 9.21815 3.83283C12.4261 3.83283 15.1313 6.53812 15.1313 9.74603V10.803C15.1313 11.3869 14.6066 11.9635 14.0226 11.9635C13.4387 11.9635 12.9139 11.3869 12.9139 10.803V9.74603C12.9139 7.70598 11.2582 6.05028 9.21815 6.05028C7.1781 6.05028 5.52241 7.70598 5.52241 9.74603C5.52241 11.7861 7.1781 13.4418 9.21815 13.4418C10.2382 13.4418 11.1695 13.0279 11.8347 12.3552C12.3152 13.0131 13.143 13.4418 14.0226 13.4418C15.4787 13.4418 16.6096 12.2591 16.6096 10.803V9.74603C16.6096 5.66592 13.2983 2.35453 9.21815 2.35453ZM9.21815 11.9635C7.99117 11.9635 7.00071 10.973 7.00071 9.74603C7.00071 8.51904 7.99117 7.52858 9.21815 7.52858C10.4451 7.52858 11.4356 8.51904 11.4356 9.74603C11.4356 10.973 10.4451 11.9635 9.21815 11.9635Z" fill="#0B4654" fill-opacity="0.5"/>
</g>
</svg>
