<svg width="19" height="19" viewBox="0 0 19 19" fill="none" xmlns="http://www.w3.org/2000/svg">
<g id="ri:lock-password-fill">
<path id="Vector" d="M13.6527 6.8264H15.131C15.327 6.8264 15.515 6.90428 15.6536 7.0429C15.7922 7.18151 15.8701 7.36952 15.8701 7.56555V16.4353C15.8701 16.6314 15.7922 16.8194 15.6536 16.958C15.515 17.0966 15.327 17.1745 15.131 17.1745H3.30458C3.10854 17.1745 2.92054 17.0966 2.78192 16.958C2.6433 16.8194 2.56543 16.6314 2.56543 16.4353V7.56555C2.56543 7.36952 2.6433 7.18151 2.78192 7.0429C2.92054 6.90428 3.10854 6.8264 3.30458 6.8264H4.78288V6.08725C4.78288 4.91105 5.25012 3.78301 6.08183 2.95131C6.91353 2.11961 8.04157 1.65236 9.21777 1.65236C10.394 1.65236 11.522 2.11961 12.3537 2.95131C13.1854 3.78301 13.6527 4.91105 13.6527 6.08725V6.8264ZM12.1744 6.8264V6.08725C12.1744 5.30312 11.8629 4.55109 11.3084 3.99662C10.7539 3.44216 10.0019 3.13066 9.21777 3.13066C8.43364 3.13066 7.68161 3.44216 7.12714 3.99662C6.57267 4.55109 6.26118 5.30312 6.26118 6.08725V6.8264H12.1744ZM8.47862 11.2613V12.7396H9.95692V11.2613H8.47862ZM5.52203 11.2613V12.7396H7.00033V11.2613H5.52203ZM11.4352 11.2613V12.7396H12.9135V11.2613H11.4352Z" fill="#0B4654" fill-opacity="0.5"/>
</g>
</svg>
